<?xml version="1.0" encoding="UTF-8"?>
<svg version="1.1" xmlns="http://www.w3.org/2000/svg" width="2000" height="2261">
<path d="M0 0 C1.14218742 0.55861977 1.14218742 0.55861977 2.30744934 1.12852478 C4.80690495 2.35182163 7.30380149 3.58025228 9.80078125 4.80859375 C11.56099249 5.67099233 13.32141223 6.53296548 15.08203125 7.39453125 C18.68733386 9.15900095 22.29189169 10.92497882 25.89599609 12.69189453 C32.75376525 16.05174328 39.62366727 19.38646218 46.49490356 22.71865845 C50.08182984 24.45835515 53.66790896 26.19979564 57.25390625 27.94140625 C58.33285912 28.46541771 58.33285912 28.46541771 59.43360901 29.00001526 C68.08012936 33.20027182 76.72185817 37.41036279 85.36328125 41.62109375 C86.17275208 42.01551666 86.9822229 42.40993958 87.81622314 42.8163147 C95.24530349 46.43631804 102.67405868 50.05698833 110.10253906 53.67822266 C115.06431077 56.09697183 120.02622034 58.51543793 124.98828125 60.93359375 C125.80262634 61.3304538 126.61697144 61.72731384 127.45599365 62.13619995 C139.12460038 67.82212813 150.8010163 73.4917138 162.4831543 79.14978027 C175.04041103 85.23251237 187.58163015 91.34788183 200.1204834 97.46844482 C211.98717399 103.26071025 223.85874062 109.04272836 235.73828125 114.80859375 C248.0351732 120.77706635 260.32624041 126.75736688 272.61328125 132.74609375 C284.942228 138.75515386 297.27489502 144.75643948 309.61328125 150.74609375 C321.86775651 156.69525647 334.11751305 162.65402836 346.36328125 168.62109375 C347.17341675 169.015849 347.98355225 169.41060425 348.8182373 169.81732178 C355.40976852 173.0292898 362.00103181 176.24180751 368.59228516 179.4543457 C374.3491594 182.26018382 380.10613832 185.06580698 385.86328125 187.87109375 C387.0789679 188.46346832 387.0789679 188.46346832 388.31921387 189.06781006 C400.46184839 194.98420509 412.60966605 200.88985118 424.76086426 206.78863525 C437.21010274 212.83232886 449.65198148 218.89103945 462.09179688 224.95410156 C473.59467391 230.56027881 485.10166683 236.15788056 496.61328125 241.74609375 C509.77918628 248.13736794 522.93805634 254.54296901 536.09381104 260.95510864 C547.55408822 266.540663 559.01891472 272.11672929 570.48828125 277.68359375 C584.07895542 284.28016412 597.65852477 290.89930539 611.23474121 297.52557373 C623.77460118 303.64569718 636.32090674 309.75233264 648.87402344 315.84521484 C660.45891961 321.46830858 672.03758857 327.10407932 683.61328125 332.74609375 C695.942228 338.75515386 708.27489502 344.75643948 720.61328125 350.74609375 C732.86775651 356.69525647 745.11751305 362.65402836 757.36328125 368.62109375 C758.17341675 369.015849 758.98355225 369.41060425 759.8182373 369.81732178 C766.40976852 373.0292898 773.00103181 376.24180751 779.59228516 379.4543457 C785.3491594 382.26018382 791.10613832 385.06580698 796.86328125 387.87109375 C798.0789679 388.46346832 798.0789679 388.46346832 799.31921387 389.06781006 C810.03195549 394.28750198 820.74813706 399.50004807 831.46826172 404.70455933 C833.60138465 405.74031724 835.73431986 406.77646064 837.8671875 407.81274414 C839.29817491 408.50797974 840.7291645 409.20321083 842.16015625 409.8984375 C842.87433716 410.24542191 843.58851807 410.59240631 844.32434082 410.9499054 C849.14858872 413.29323478 853.97468809 415.63271889 858.80151367 417.97073364 C862.30531287 419.66864078 865.80791356 421.36901073 869.31030273 423.06982422 C870.97922814 423.87962889 872.64864189 424.68842811 874.31860352 425.49609375 C905.47146941 440.56503184 905.47146941 440.56503184 915.11328125 449.24609375 C915.79648438 449.83648437 916.4796875 450.426875 917.18359375 451.03515625 C926.70497617 459.80976358 937.04422537 475.06107127 938.11328125 488.24609375 C941.08328125 487.91609375 944.05328125 487.58609375 947.11328125 487.24609375 C947.11197906 488.23757231 947.11197906 488.23757231 947.11065057 489.24908074 C947.01480531 562.23788025 946.91961221 635.22668059 946.82727051 708.21548462 C946.82586077 709.32964589 946.82445103 710.44380716 946.82299858 711.59173089 C946.7922648 735.88426717 946.76163124 760.17680357 946.73109898 784.46934011 C946.71609611 796.40566687 946.70107141 808.3419936 946.68603516 820.27832031 C946.68454031 821.46527683 946.68304547 822.65223334 946.68150533 823.87515824 C946.63710162 859.1257602 946.59154388 894.37636049 946.54505678 929.62695976 C946.47290741 984.35171821 946.40279926 1039.07647897 946.33617777 1093.80124445 C946.3334132 1096.071954 946.33064631 1098.34266354 946.3278771 1100.61337309 C946.19351356 1210.79859743 946.09073453 1320.98375105 946.11328125 1666.24609375 C945.36757905 1666.67610435 944.62187685 1667.10611496 943.85357761 1667.54915619 C941.05049903 1669.16565346 938.24749929 1670.78228735 935.44455051 1672.3990097 C934.23822792 1673.09477252 933.03187515 1673.79048304 931.82549 1674.48613739 C923.05131646 1679.54577272 914.28618316 1684.61970891 905.55078125 1689.74609375 C904.95974609 1690.09260986 904.36871094 1690.43912598 903.75976562 1690.79614258 C894.32297686 1696.33041561 884.93288522 1701.93936535 875.56176758 1707.58422852 C867.65335057 1712.3408083 859.70451023 1717.02481593 851.73828125 1721.68359375 C838.95688227 1729.15864722 826.21034276 1736.69055123 813.47802734 1744.24902344 C807.75382819 1747.64649471 802.02730958 1751.0400503 796.30078125 1754.43359375 C795.17397949 1755.10140869 794.04717773 1755.76922363 792.88623047 1756.45727539 C785.08113938 1761.08228316 777.27159642 1765.69970263 769.4597168 1770.31323242 C762.17346888 1774.61726979 754.89283023 1778.93073835 747.61328125 1783.24609375 C734.90473761 1790.77959297 722.18680492 1798.29710393 709.46582031 1805.80957031 C697.93028259 1812.62236308 686.40023734 1819.44433406 674.87588501 1826.27603149 C666.40849841 1831.29542543 657.93655383 1836.30701819 649.4609375 1841.3125 C642.17429453 1845.61680144 634.89322025 1849.93046577 627.61328125 1854.24609375 C618.56683655 1859.60892576 609.51625343 1864.96466246 600.4609375 1870.3125 C593.17429453 1874.61680144 585.89322025 1878.93046577 578.61328125 1883.24609375 C569.56683655 1888.60892576 560.51625343 1893.96466246 551.4609375 1899.3125 C544.17429453 1903.61680144 536.89322025 1907.93046577 529.61328125 1912.24609375 C520.56683655 1917.60892576 511.51625343 1922.96466246 502.4609375 1928.3125 C495.17429453 1932.61680144 487.89322025 1936.93046577 480.61328125 1941.24609375 C471.56683655 1946.60892576 462.51625343 1951.96466246 453.4609375 1957.3125 C446.17429453 1961.61680144 438.89322025 1965.93046577 431.61328125 1970.24609375 C422.56683655 1975.60892576 413.51625343 1980.96466246 404.4609375 1986.3125 C397.17429447 1990.61680147 389.89323842 1994.93049637 382.61328125 1999.24609375 C369.90473761 2006.77959297 357.18680492 2014.29710393 344.46582031 2021.80957031 C332.93028259 2028.62236308 321.40023734 2035.44433406 309.87588501 2042.27603149 C301.40849841 2047.29542543 292.93655383 2052.30701819 284.4609375 2057.3125 C277.17429447 2061.61680147 269.89323842 2065.93049637 262.61328125 2070.24609375 C249.90473761 2077.77959297 237.18680492 2085.29710393 224.46582031 2092.80957031 C209.00602731 2101.93999566 193.55802465 2111.09024088 178.11328125 2120.24609375 C164.56687934 2128.27658409 151.01939645 2136.3051743 137.4597168 2144.31323242 C130.17346893 2148.61726975 122.89281205 2152.93070776 115.61328125 2157.24609375 C106.56543185 2162.60975847 97.51385983 2167.96703499 88.45654297 2173.31469727 C83.49770326 2176.24336877 78.54205096 2179.17731266 73.58984375 2182.1171875 C60.56283324 2189.8499029 47.52737005 2197.56656399 34.4140625 2205.15234375 C31.15086954 2207.04324182 27.91918631 2208.96968923 24.71875 2210.96484375 C24.07591064 2211.35736328 23.43307129 2211.74988281 22.77075195 2212.15429688 C21.14465476 2213.15031203 19.53061494 2214.16594424 17.91796875 2215.18359375 C15.11328125 2216.24609375 15.11328125 2216.24609375 12.36328125 2215.765625 C7.88036682 2213.66964698 3.55947057 2211.34330311 -0.76171875 2208.93359375 C-2.73930109 2207.84193647 -4.7171759 2206.75080886 -6.6953125 2205.66015625 C-8.22647705 2204.81372559 -8.22647705 2204.81372559 -9.78857422 2203.95019531 C-13.79114437 2201.74862402 -17.81253235 2199.5829779 -21.83496094 2197.41796875 C-30.6190954 2192.68871243 -39.34630635 2187.87700086 -48.01171875 2182.93359375 C-56.99149625 2177.81438388 -66.06941839 2172.90284755 -75.19921875 2168.05859375 C-85.3033582 2162.69692273 -95.35590789 2157.26113462 -105.33544922 2151.67041016 C-110.88386936 2148.57285196 -116.44838683 2145.5042628 -122.01171875 2142.43359375 C-122.6338324 2142.09011902 -123.25594604 2141.74664429 -123.89691162 2141.39276123 C-133.42969639 2136.13142999 -142.99172675 2130.92635778 -152.57202148 2125.75195312 C-159.70727318 2121.89473656 -166.80612375 2117.97676313 -173.890625 2114.02734375 C-180.25555334 2110.48024291 -186.63290925 2106.95564847 -193.01171875 2103.43359375 C-193.63495026 2103.08939392 -194.25818176 2102.74519409 -194.90029907 2102.39056396 C-203.33090407 2097.73631351 -211.78434126 2093.12726124 -220.26171875 2088.55859375 C-227.94028115 2084.4200325 -235.55827192 2080.19011341 -243.13671875 2075.87109375 C-252.23809846 2070.68502159 -261.44113306 2065.70591882 -270.68890381 2060.78762817 C-278.61138211 2056.57156225 -286.47011553 2052.26241927 -294.26171875 2047.80859375 C-303.15635684 2042.72695841 -312.15098761 2037.85900134 -321.19921875 2033.05859375 C-331.30342833 2027.69705821 -341.35591103 2022.26113286 -351.33544922 2016.67041016 C-356.88387069 2013.57285122 -362.44846793 2010.50441203 -368.01171875 2007.43359375 C-368.63549408 2007.08912201 -369.25926941 2006.74465027 -369.90194702 2006.38973999 C-378.33199783 2001.73575296 -386.78488007 1997.12697086 -395.26171875 1992.55859375 C-402.94028115 1988.4200325 -410.55827192 1984.19011341 -418.13671875 1979.87109375 C-427.2374515 1974.68539023 -436.43991618 1969.70683125 -445.68688965 1964.78863525 C-454.59306547 1960.04870034 -463.40300426 1955.16295463 -472.1640625 1950.16015625 C-479.66975056 1945.89201186 -487.2640878 1941.80020107 -494.88671875 1937.74609375 C-504.39437588 1932.68943252 -513.81236509 1927.50022537 -523.1640625 1922.16015625 C-531.26170483 1917.55539431 -539.46623331 1913.16060983 -547.69000244 1908.78707886 C-555.61211085 1904.57119249 -563.47047257 1900.26221518 -571.26171875 1895.80859375 C-580.15635684 1890.72695841 -589.15098761 1885.85900134 -598.19921875 1881.05859375 C-608.30342833 1875.69705821 -618.35591103 1870.26113286 -628.33544922 1864.67041016 C-633.88387069 1861.57285122 -639.44846793 1858.50441203 -645.01171875 1855.43359375 C-645.94738174 1854.91688614 -645.94738174 1854.91688614 -646.90194702 1854.38973999 C-655.33199783 1849.73575296 -663.78488007 1845.12697086 -672.26171875 1840.55859375 C-679.94028115 1836.4200325 -687.55827192 1832.19011341 -695.13671875 1827.87109375 C-704.2374515 1822.68539023 -713.43991618 1817.70683125 -722.68688965 1812.78863525 C-731.59306547 1808.04870034 -740.40300426 1803.16295463 -749.1640625 1798.16015625 C-756.66975056 1793.89201186 -764.2640878 1789.80020107 -771.88671875 1785.74609375 C-781.39437588 1780.68943252 -790.81236509 1775.50022537 -800.1640625 1770.16015625 C-808.26170483 1765.55539431 -816.46623331 1761.16060983 -824.69000244 1756.78707886 C-832.61211085 1752.57119249 -840.47047257 1748.26221518 -848.26171875 1743.80859375 C-857.15635684 1738.72695841 -866.15098761 1733.85900134 -875.19921875 1729.05859375 C-885.30342833 1723.69705821 -895.35591103 1718.26113286 -905.33544922 1712.67041016 C-910.88387069 1709.57285122 -916.44846793 1706.50441203 -922.01171875 1703.43359375 C-922.63549408 1703.08912201 -923.25926941 1702.74465027 -923.90194702 1702.38973999 C-933.31129951 1697.19510885 -942.75336422 1692.06420939 -952.21606445 1686.96728516 C-958.93065952 1683.33841059 -965.57347013 1679.59677858 -972.19921875 1675.80859375 C-982.11520361 1670.14219252 -992.20184194 1664.84889433 -1002.3684082 1659.65063477 C-1003.46499756 1659.08916748 -1004.56158691 1658.5277002 -1005.69140625 1657.94921875 C-1007.1606958 1657.20140137 -1007.1606958 1657.20140137 -1008.65966797 1656.43847656 C-1010.88671875 1655.24609375 -1010.88671875 1655.24609375 -1011.88671875 1654.24609375 C-1011.98558079 1652.77170899 -1012.01464799 1651.29259259 -1012.01617861 1649.81489784 C-1012.02131533 1648.36665362 -1012.02131533 1648.36665362 -1012.02655582 1646.88915195 C-1012.02524731 1645.81327496 -1012.0239388 1644.73739797 -1012.02259064 1643.62891865 C-1012.02513331 1642.4922425 -1012.02767599 1641.35556636 -1012.03029572 1640.18444548 C-1012.03639846 1636.99842606 -1012.03796949 1633.8124397 -1012.03772304 1630.62641556 C-1012.03854755 1627.16537346 -1012.04514334 1623.70434179 -1012.05103081 1620.24330527 C-1012.06058197 1614.15530689 -1012.06639754 1608.06731361 -1012.06983602 1601.97930884 C-1012.07498835 1592.89642605 -1012.08587001 1583.81355649 -1012.09795806 1574.7306806 C-1012.11827026 1559.35180279 -1012.13395347 1543.97292342 -1012.1471653 1528.59403801 C-1012.16045203 1513.16468917 -1012.17603973 1497.73534518 -1012.19452477 1482.30600166 C-1012.195682 1481.3397845 -1012.19683924 1480.37356734 -1012.19803155 1479.37807087 C-1012.20393578 1474.4610877 -1012.20988588 1469.54410458 -1012.21585751 1464.62712149 C-1012.22804013 1454.58551756 -1012.23990861 1444.54391327 -1012.25167561 1434.50230885 C-1012.25285745 1433.49387344 -1012.25403928 1432.48543803 -1012.25525694 1431.44644397 C-1012.28351725 1407.26221098 -1012.30839536 1383.07797463 -1012.33309937 1358.89373779 C-1012.41422194 1279.56064888 -1012.50628576 1200.22757252 -1012.60199225 1120.89449996 C-1012.61482056 1110.25811506 -1012.62757996 1099.62173009 -1012.64015603 1088.98534489 C-1012.74726292 998.43013408 -1012.85711422 907.87499058 -1013.21987104 774.57646251 C-1013.24198851 766.89940083 -1013.26364221 759.22233789 -1013.28523636 751.54527473 C-1013.40314791 709.71162455 -1013.52478669 667.87799296 -1013.679221 626.04445969 C-1013.74143755 609.19003269 -1013.79765338 592.33559604 -1013.84733564 575.48112732 C-1013.87607989 565.8372028 -1013.9108287 556.19334418 -1013.95485765 546.54947702 C-1013.98299434 540.28559644 -1014.00414904 534.02171935 -1014.01935434 527.75779404 C-1014.02814074 524.23426244 -1014.04014814 520.71082364 -1014.06122112 517.18734229 C-1014.08208047 513.42660226 -1014.09063282 509.66603217 -1014.09599304 505.90524292 C-1014.1050274 504.82666364 -1014.11406175 503.74808436 -1014.12336987 502.63682085 C-1014.107146 488.11698262 -1008.62331543 474.60560038 -998.51171875 464.12109375 C-990.04129627 455.91291345 -979.0308723 451.20911537 -968.51171875 446.18359375 C-967.13808716 445.52306834 -965.76455378 444.86233866 -964.39111328 444.20141602 C-954.40585626 439.40663618 -944.36798818 434.72980242 -934.30908203 430.09155273 C-925.95723759 426.23255055 -917.66212981 422.26533 -909.38671875 418.24609375 C-898.7792976 413.09435908 -888.11445882 408.08010179 -877.40625 403.140625 C-869.02292178 399.26345305 -860.69476039 395.28104674 -852.38671875 391.24609375 C-841.77927922 386.09439595 -831.11445973 381.08010221 -820.40625 376.140625 C-812.02292178 372.26345305 -803.69476039 368.28104674 -795.38671875 364.24609375 C-784.77927922 359.09439595 -774.11445973 354.08010221 -763.40625 349.140625 C-755.02292178 345.26345305 -746.69476039 341.28104674 -738.38671875 337.24609375 C-727.77927922 332.09439595 -717.11445973 327.08010221 -706.40625 322.140625 C-698.02292178 318.26345305 -689.69476039 314.28104674 -681.38671875 310.24609375 C-670.77927922 305.09439595 -660.11445973 300.08010221 -649.40625 295.140625 C-641.02292178 291.26345305 -632.69476039 287.28104674 -624.38671875 283.24609375 C-613.77927922 278.09439595 -603.11445973 273.08010221 -592.40625 268.140625 C-584.02292178 264.26345305 -575.69476039 260.28104674 -567.38671875 256.24609375 C-556.77927922 251.09439595 -546.11445973 246.08010221 -535.40625 241.140625 C-527.02292178 237.26345305 -518.69476039 233.28104674 -510.38671875 229.24609375 C-499.77927922 224.09439595 -489.11445973 219.08010221 -478.40625 214.140625 C-470.02292178 210.26345305 -461.69476039 206.28104674 -453.38671875 202.24609375 C-442.77927922 197.09439595 -432.11445973 192.08010221 -421.40625 187.140625 C-413.02292178 183.26345305 -404.69476039 179.28104674 -396.38671875 175.24609375 C-385.77927922 170.09439595 -375.11445973 165.08010221 -364.40625 160.140625 C-356.02292178 156.26345305 -347.69476039 152.28104674 -339.38671875 148.24609375 C-328.77927922 143.09439595 -318.11445973 138.08010221 -307.40625 133.140625 C-299.02292178 129.26345305 -290.69476039 125.28104674 -282.38671875 121.24609375 C-271.77927922 116.09439595 -261.11445973 111.08010221 -250.40625 106.140625 C-242.02292178 102.26345305 -233.69476039 98.28104674 -225.38671875 94.24609375 C-214.77927922 89.09439595 -204.11445973 84.08010221 -193.40625 79.140625 C-185.02292178 75.26345305 -176.69476039 71.28104674 -168.38671875 67.24609375 C-157.77927922 62.09439595 -147.11445973 57.08010221 -136.40625 52.140625 C-128.02292178 48.26345305 -119.69476039 44.28104674 -111.38671875 40.24609375 C-100.7807543 35.09511236 -90.11756803 30.08118205 -79.41064453 25.14282227 C-71.59753607 21.52965644 -63.83201288 17.8296806 -56.08889771 14.06982422 C-51.89216241 12.0342958 -47.68868343 10.01269925 -43.48681641 7.98779297 C-41.04831533 6.80806513 -38.61294616 5.62350949 -36.18115234 4.43017578 C-32.61414553 2.68050362 -29.03228518 0.96265258 -25.44921875 -0.75390625 C-24.37140137 -1.28894775 -23.29358398 -1.82398926 -22.18310547 -2.37524414 C-21.17908691 -2.85082764 -20.17506836 -3.32641113 -19.140625 -3.81640625 C-17.83073608 -4.45255859 -17.83073608 -4.45255859 -16.49438477 -5.1015625 C-10.81509622 -6.52231514 -5.02971993 -2.48523691 0 0 Z M-21.19921875 122.6328125 C-22.26011719 123.15230469 -23.32101562 123.67179688 -24.4140625 124.20703125 C-25.56003906 124.77679688 -26.70601562 125.3465625 -27.88671875 125.93359375 C-30.34309646 127.13942763 -32.80241076 128.33921854 -35.26171875 129.5390625 C-36.20869629 130.00232437 -36.20869629 130.00232437 -37.17480469 130.47494507 C-43.70139363 133.66070516 -50.29009052 136.70839291 -56.88671875 139.74609375 C-67.2251407 144.51805991 -77.49872302 149.41020568 -87.74658203 154.37329102 C-95.71546276 158.22366464 -103.72579614 161.97539706 -111.76171875 165.68359375 C-121.96423732 170.39244848 -132.10170845 175.22236215 -142.20892334 180.131073 C-152.20975846 184.98540982 -162.27259237 189.6951331 -172.3671875 194.3515625 C-180.75051572 198.22873445 -189.07867711 202.21114076 -197.38671875 206.24609375 C-206.84449078 210.83943441 -216.33894432 215.34185185 -225.88671875 219.74609375 C-236.89804797 224.82591229 -247.83642905 230.04138292 -258.74316406 235.34082031 C-263.9636197 237.87556647 -269.18508131 240.40133839 -274.453125 242.8359375 C-275.25919189 243.20871826 -276.06525879 243.58149902 -276.89575195 243.96557617 C-278.33831523 244.62894469 -279.78329851 245.28708856 -281.23120117 245.9387207 C-284.6980659 247.37117415 -284.6980659 247.37117415 -286.88671875 250.24609375 C-286.26031494 250.59687988 -285.63391113 250.94766602 -284.98852539 251.30908203 C-284.10028076 251.80649902 -283.21203613 252.30391602 -282.296875 252.81640625 C-281.2975293 253.37602051 -280.29818359 253.93563477 -279.26855469 254.51220703 C-277.02564976 255.76827339 -274.78281296 257.02446142 -272.54003906 258.28076172 C-266.82776198 261.4803932 -261.11452715 264.67827564 -255.3984375 267.87109375 C-244.84910865 273.76613831 -234.32155757 279.69473833 -223.83886719 285.70751953 C-217.04609595 289.59811207 -210.22097203 293.42891326 -203.38671875 297.24609375 C-194.84052283 302.01945684 -186.32344947 306.83924245 -177.83325195 311.71142578 C-171.10775326 315.56455621 -164.34476046 319.34779408 -157.57421875 323.12109375 C-149.22479582 327.77600785 -140.93985009 332.52633799 -132.69921875 337.37109375 C-124.27636082 342.32168824 -115.77090271 347.07524585 -107.1706543 351.7097168 C-100.36563062 355.39437628 -93.67822409 359.25462575 -87.01171875 363.18359375 C-78.00346802 368.48925441 -68.89016907 373.54920583 -59.6784668 378.49194336 C-50.53945395 383.4046763 -41.54122771 388.54371039 -32.54931641 393.71923828 C-27.88228781 396.39552627 -23.1968606 399.03918283 -18.51171875 401.68359375 C-17.07469604 402.49485718 -17.07469604 402.49485718 -15.60864258 403.32250977 C-13.66754057 404.41823799 -11.72637836 405.51385957 -9.78515625 406.609375 C-6.92216289 408.2260788 -4.06046376 409.84504802 -1.19921875 411.46484375 C8.76576912 417.10504744 18.74302046 422.72219512 28.73828125 428.30859375 C37.24002978 433.06087662 45.71209735 437.86114209 54.16064453 442.70727539 C60.95361375 446.59788771 67.77886911 450.42882453 74.61328125 454.24609375 C83.15718283 459.01817536 91.67136584 463.83769442 100.16015625 468.70703125 C106.95332344 472.59766337 113.77871024 476.4287358 120.61328125 480.24609375 C129.15947717 485.01945684 137.67655053 489.83924245 146.16674805 494.71142578 C152.89224615 498.56455587 159.65521444 502.34783991 166.42578125 506.12109375 C174.73511928 510.75299905 182.97742222 515.48318956 191.17578125 520.30859375 C200.12254815 525.56967371 209.17728595 530.58520717 218.32226562 535.49243164 C227.46114137 540.40480149 236.45902853 545.54385787 245.45068359 550.71923828 C250.11771219 553.39552627 254.8031394 556.03918283 259.48828125 558.68359375 C260.44629639 559.22443604 261.40431152 559.76527832 262.39135742 560.32250977 C264.33245943 561.41823799 266.27362164 562.51385957 268.21484375 563.609375 C271.07783711 565.2260788 273.93953624 566.84504802 276.80078125 568.46484375 C286.76576912 574.10504744 296.74302046 579.72219512 306.73828125 585.30859375 C315.24002978 590.06087662 323.71209735 594.86114209 332.16064453 599.70727539 C338.95361375 603.59788771 345.77886911 607.42882453 352.61328125 611.24609375 C361.15947717 616.01945684 369.67655053 620.83924245 378.16674805 625.71142578 C384.89224674 629.56455621 391.65523954 633.34779408 398.42578125 637.12109375 C406.77520154 641.77600638 415.06021818 646.52622367 423.30078125 651.37109375 C431.98697195 656.47793178 440.75334306 661.40276279 449.63354492 666.16455078 C450.88808472 666.8391333 450.88808472 666.8391333 452.16796875 667.52734375 C452.98104492 667.96304688 453.79412109 668.39875 454.63183594 668.84765625 C458.12073928 670.81385443 461.46121166 673.00449141 464.79345703 675.22460938 C467.76486831 676.533006 469.00318122 676.0764649 472.11328125 675.24609375 C473.87958538 674.49155513 475.61989025 673.67452403 477.33642578 672.81274414 C478.35584259 672.30453629 479.3752594 671.79632843 480.42556763 671.27272034 C481.52134125 670.71866013 482.61711487 670.16459991 483.74609375 669.59375 C484.89254364 669.01958847 486.03899353 668.44542694 487.22018433 667.85386658 C489.65466081 666.63432755 492.08712612 665.4108985 494.51806641 664.18432617 C497.57339951 662.642749 500.63200135 661.10781417 503.69197464 659.57547188 C514.39909751 654.21276691 525.09249505 648.82973241 535.66796875 643.2109375 C548.85992713 636.20312186 562.2771827 629.63564439 575.65234375 622.98681641 C592.20909409 614.76555992 592.20909409 614.76555992 608.61328125 606.24609375 C621.82161416 599.22268374 635.25769366 592.64533245 648.65234375 585.98681641 C660.46907347 580.10956544 672.26628284 574.21751092 683.91967773 568.02185059 C695.99217721 561.6286703 708.27440324 555.63882535 720.50683594 549.55957031 C732.24268543 543.72385897 743.95394914 537.86222479 755.53181458 531.7180481 C763.05966275 527.72703501 770.67016371 523.91091262 778.30078125 520.12109375 C779.6596023 519.44420529 781.01832634 518.76712205 782.37695312 518.08984375 C785.62129353 516.47303933 788.86689348 514.85878414 792.11328125 513.24609375 C792.11328125 512.58609375 792.11328125 511.92609375 792.11328125 511.24609375 C756.08996009 493.55536534 756.08996009 493.55536534 719.99975586 476.00170898 C718.70686153 475.37615372 717.41397417 474.75058402 716.12109375 474.125 C715.16364006 473.66174568 715.16364006 473.66174568 714.18684387 473.18913269 C705.69595334 469.07881072 697.21777376 464.94236187 688.73828125 460.80859375 C676.36779144 454.77844191 663.99367791 448.75588044 651.61328125 442.74609375 C638.4480321 436.35518702 625.28989861 429.94978787 612.13476562 423.53808594 C600.63188859 417.93190869 589.12489567 412.33430694 577.61328125 406.74609375 C564.44737622 400.35481956 551.28850616 393.94921849 538.13275146 387.53707886 C526.67247428 381.9515245 515.20764778 376.37545821 503.73828125 370.80859375 C490.14760708 364.21202338 476.56803773 357.59288211 462.99182129 350.96661377 C450.45196132 344.84649032 437.90565576 338.73985486 425.35253906 332.64697266 C413.76764289 327.02387892 402.18897393 321.38810818 390.61328125 315.74609375 C378.28433464 309.73703371 365.95170352 303.73567362 353.61328125 297.74609375 C340.44805134 291.35514729 327.28989869 284.94978791 314.13476562 278.53808594 C302.63188859 272.93190869 291.12489567 267.33430694 279.61328125 261.74609375 C266.44805134 255.35514729 253.28989869 248.94978791 240.13476562 242.53808594 C228.63188859 236.93190869 217.12489567 231.33430694 205.61328125 225.74609375 C192.44805134 219.35514729 179.28989869 212.94978791 166.13476562 206.53808594 C154.63188859 200.93190869 143.12489567 195.33430694 131.61328125 189.74609375 C118.44737622 183.35481956 105.28850616 176.94921849 92.13275146 170.53707886 C79.96889362 164.60861063 67.80000644 158.69061769 55.62573242 152.78356934 C46.8107473 148.50626232 38.00168124 144.21708766 29.19921875 139.9140625 C28.27541412 139.46265396 27.3516095 139.01124542 26.39981079 138.54615784 C21.89147275 136.3431947 17.38381169 134.13887038 12.87744141 131.93188477 C8.29571995 129.69009782 3.70738672 127.46238202 -0.88671875 125.24609375 C-2.0365625 124.68986328 -3.18640625 124.13363281 -4.37109375 123.56054688 C-5.345625 123.10099609 -6.32015625 122.64144531 -7.32421875 122.16796875 C-8.52884766 121.5970752 -8.52884766 121.5970752 -9.7578125 121.01464844 C-14.26235408 119.3884676 -17.15436904 120.62822023 -21.19921875 122.6328125 Z M-420.19921875 311.6328125 C-421.79032471 312.41192993 -421.79032471 312.41192993 -423.41357422 313.20678711 C-424.55971191 313.7766333 -425.70584961 314.34647949 -426.88671875 314.93359375 C-429.34570007 316.14073079 -431.80761594 317.34182909 -434.26953125 318.54296875 C-435.21712814 319.0065403 -435.21712814 319.0065403 -436.18386841 319.47947693 C-442.66562245 322.64334117 -449.20974494 325.66821783 -455.76171875 328.68359375 C-465.96474936 333.39131537 -476.101727 338.22237116 -486.20892334 343.131073 C-496.20975846 347.98540982 -506.27259237 352.6951331 -516.3671875 357.3515625 C-524.75051572 361.22873445 -533.07867711 365.21114076 -541.38671875 369.24609375 C-551.99415828 374.39779155 -562.65897777 379.41208529 -573.3671875 384.3515625 C-581.75051572 388.22873445 -590.07867711 392.21114076 -598.38671875 396.24609375 C-608.99415828 401.39779155 -619.65897777 406.41208529 -630.3671875 411.3515625 C-638.75051572 415.22873445 -647.07867711 419.21114076 -655.38671875 423.24609375 C-665.99415828 428.39779155 -676.65897777 433.41208529 -687.3671875 438.3515625 C-695.75051572 442.22873445 -704.07867711 446.21114076 -712.38671875 450.24609375 C-722.99415828 455.39779155 -733.65897777 460.41208529 -744.3671875 465.3515625 C-752.75052152 469.22873714 -761.07857525 473.21134301 -769.38671875 477.24609375 C-782.48637574 483.60671922 -795.6726154 489.76416095 -808.89550781 495.86425781 C-812.98095903 497.75159489 -817.05982383 499.65285902 -821.13671875 501.55859375 C-822.27625 502.09097656 -823.41578125 502.62335938 -824.58984375 503.171875 C-825.3478125 503.52636719 -826.10578125 503.88085938 -826.88671875 504.24609375 C-824.03108496 506.51879348 -821.20185869 508.18178643 -817.90625 509.7421875 C-816.92011719 510.21205078 -815.93398438 510.68191406 -814.91796875 511.16601562 C-813.3246875 511.9172168 -813.3246875 511.9172168 -811.69921875 512.68359375 C-809.42442373 513.76550845 -807.14968571 514.847543 -804.875 515.9296875 C-803.71178223 516.48124512 -802.54856445 517.03280273 -801.35009766 517.60107422 C-796.02077431 520.13237132 -790.70401691 522.68965988 -785.38671875 525.24609375 C-783.2982509 526.24885167 -781.20970903 527.25145544 -779.12109375 528.25390625 C-778.08919922 528.74922852 -777.05730469 529.24455078 -775.99414062 529.75488281 C-772.9221504 531.22909056 -769.84979706 532.70253891 -766.77734375 534.17578125 C-755.59774396 539.53746242 -744.42561197 544.91430024 -733.26171875 550.30859375 C-722.70321915 555.4102732 -712.13225059 560.48519878 -701.55078125 565.5390625 C-692.36922593 569.92488043 -683.19870832 574.33372511 -674.02636719 578.73876953 C-670.94117393 580.21995018 -667.85544599 581.70001066 -664.76953125 583.1796875 C-652.97083642 588.83801466 -641.18141968 594.51520959 -629.39953613 600.20843506 C-620.4861772 604.51500467 -611.56203387 608.7983619 -602.62841797 613.06274414 C-594.87062682 616.76873404 -587.12753917 620.50484016 -579.38671875 624.24609375 C-568.78147489 629.37148855 -558.16368283 634.46991354 -547.53515625 639.546875 C-531.80585866 647.06064368 -516.09975013 654.62237162 -500.40411377 662.20614624 C-490.4593206 667.01063733 -480.50110694 671.78644706 -470.53515625 676.546875 C-454.80450639 684.06128965 -439.09684835 691.62327007 -423.40008545 699.2081604 C-414.48654408 703.5148231 -405.56221866 707.79827369 -396.62841797 712.06274414 C-388.87062682 715.76873404 -381.12753917 719.50484016 -373.38671875 723.24609375 C-362.78147489 728.37148855 -352.16368283 733.46991354 -341.53515625 738.546875 C-325.80450639 746.06128965 -310.09684835 753.62327007 -294.40008545 761.2081604 C-285.48654408 765.5148231 -276.56221866 769.79827369 -267.62841797 774.06274414 C-259.87062682 777.76873404 -252.12753917 781.50484016 -244.38671875 785.24609375 C-233.78147489 790.37148855 -223.16368283 795.46991354 -212.53515625 800.546875 C-196.80585866 808.06064368 -181.09975013 815.62237162 -165.40411377 823.20614624 C-155.4593206 828.01063733 -145.50110694 832.78644706 -135.53515625 837.546875 C-119.80450639 845.06128965 -104.09684835 852.62327007 -88.40008545 860.2081604 C-79.48654408 864.5148231 -70.56221866 868.79827369 -61.62841797 873.06274414 C-54.49527314 876.470333 -47.37424934 879.90268969 -40.25662231 883.3425293 C-36.56781377 885.12501495 -32.8782067 886.90584715 -29.18858337 888.68664551 C-26.31946538 890.07145995 -23.45067032 891.45693318 -20.58251953 892.84375 C-17.53953871 894.31423417 -14.49464687 895.78068613 -11.44921875 897.24609375 C-10.58167969 897.66632812 -9.71414063 898.0865625 -8.8203125 898.51953125 C-7.11166244 899.33989229 -5.39206266 900.13781215 -3.66259766 900.91333008 C-0.88671875 902.24609375 -0.88671875 902.24609375 2.26806641 904.1784668 C8.31832921 907.60064348 8.31832921 907.60064348 15.1010437 907.89508057 C20.64415105 906.05453258 25.59580028 902.99439726 30.61328125 900.05859375 C32.29067008 899.12899377 33.97143008 898.20545437 35.65527344 897.28759766 C38.32644731 895.8302028 40.99460092 894.36881147 43.65301514 892.88824463 C53.40181913 887.46458542 63.3806511 882.52717997 73.38305664 877.59188843 C78.11635962 875.25591791 82.84287962 872.9064502 87.56640625 870.55078125 C88.46407715 870.10314926 89.36174805 869.65551727 90.28662109 869.19432068 C96.01294878 866.32753283 101.69208655 863.38255419 107.34765625 860.37890625 C120.27176205 853.51846191 133.40466959 847.0710642 146.50683594 840.55957031 C162.57202034 832.57958837 162.57202034 832.57958837 178.48828125 824.30859375 C191.50965872 817.38567472 204.75249763 810.89451196 217.95666504 804.32958984 C237.05210543 794.83604324 237.05210543 794.83604324 255.97070312 784.99633789 C268.02532303 778.61013609 280.29148839 772.6303344 292.50683594 766.55957031 C310.87769196 757.42456794 329.07724691 748.02505671 347.11328125 738.24609375 C343.59590879 735.28631398 340.05644984 732.96965934 336.01953125 730.77734375 C335.1504715 730.3022084 335.1504715 730.3022084 334.26385498 729.81747437 C333.02520125 729.14074094 331.78540228 728.46610014 330.54455566 727.793396 C327.25454596 726.00927121 323.97341795 724.20893851 320.69140625 722.41015625 C320.03670349 722.05180695 319.38200073 721.69345764 318.7074585 721.32424927 C313.22359919 718.31834636 307.78318698 715.24088599 302.36328125 712.12109375 C294.87444989 707.81233096 287.34829143 703.57620973 279.80078125 699.37109375 C271.45129166 694.71629023 263.16653263 689.96564452 254.92578125 685.12109375 C246.47599331 680.15722141 237.94951813 675.37265791 229.32910156 670.7121582 C219.81537634 665.56386498 210.40975925 660.2301905 201.00439453 654.88720703 C196.21133179 652.16647001 191.41203163 649.45678221 186.61328125 646.74609375 C180.88572736 643.50956198 175.15866465 640.27217223 169.43359375 637.03125 C159.46573866 631.39021407 149.48607873 625.77141015 139.48828125 620.18359375 C130.98423923 615.43002887 122.50928378 610.62948952 114.05932617 605.78051758 C107.33402501 601.92740761 100.57116403 598.14430484 93.80078125 594.37109375 C85.45135301 589.71617669 77.16653545 584.96564618 68.92578125 580.12109375 C60.47599331 575.15722141 51.94951813 570.37265791 43.32910156 565.7121582 C33.81251573 560.56231698 24.40389425 555.22724101 14.99560547 549.8828125 C10.24626872 547.18591655 5.49254332 544.49679506 0.73828125 541.80859375 C-0.67481323 541.00929443 -0.67481323 541.00929443 -2.11645508 540.19384766 C-9.23672392 536.16979406 -16.37242719 532.17377764 -23.51171875 528.18359375 C-32.01346728 523.43131088 -40.48553485 518.63104541 -48.93408203 513.78491211 C-55.72705125 509.89429979 -62.55230661 506.06336297 -69.38671875 502.24609375 C-77.93291467 497.47273066 -86.44998803 492.65294505 -94.94018555 487.78076172 C-101.66568365 483.92763163 -108.42865194 480.14434759 -115.19921875 476.37109375 C-123.50855678 471.73918845 -131.75085972 467.00899794 -139.94921875 462.18359375 C-148.89598565 456.92251379 -157.95072345 451.90698033 -167.09570312 446.99975586 C-176.23743224 442.08585225 -185.2383313 436.94536342 -194.23291016 431.76855469 C-198.85625966 429.11618969 -203.49602519 426.49296121 -208.13671875 423.87109375 C-209.08667725 423.33427979 -210.03663574 422.79746582 -211.01538086 422.24438477 C-218.17048474 418.20557141 -225.33986238 414.19256231 -232.51171875 410.18359375 C-241.0157283 405.42996998 -249.49071553 400.62948992 -257.94067383 395.78051758 C-264.66597499 391.92740761 -271.42883597 388.14430484 -278.19921875 384.37109375 C-286.54864699 379.71617669 -294.83346455 374.96564618 -303.07421875 370.12109375 C-311.52400669 365.15722141 -320.05048187 360.37265791 -328.67089844 355.7121582 C-338.18462366 350.56386498 -347.59024075 345.2301905 -356.99560547 339.88720703 C-361.78866846 337.16646987 -366.58802023 334.45687442 -371.38671875 331.74609375 C-373.27996598 330.6758132 -375.17319509 329.60550059 -377.06640625 328.53515625 C-381.13309557 326.23647224 -385.20099784 323.93994965 -389.26953125 321.64453125 C-390.83670898 320.75991211 -390.83670898 320.75991211 -392.43554688 319.85742188 C-394.43654186 318.72797137 -396.43782843 317.59903726 -398.43945312 316.47070312 C-399.34244141 315.96087891 -400.24542969 315.45105469 -401.17578125 314.92578125 C-402.36228271 314.25651611 -402.36228271 314.25651611 -403.57275391 313.57373047 C-405.22291386 312.62695163 -406.83992994 311.62141207 -408.43115234 310.57861328 C-412.94184569 308.13087374 -415.93039967 309.51722296 -420.19921875 311.6328125 Z M-900.88671875 595.24609375 C-900.94335058 667.13175441 -900.8740939 739.01684116 -900.71899414 810.90234375 C-900.71681479 811.91353008 -900.71463544 812.92471641 -900.71239006 813.96654475 C-900.64721756 844.16398952 -900.57802651 874.36142484 -900.50795622 904.55885859 C-900.48146772 915.98293951 -900.45533509 927.40702125 -900.42923205 938.83110306 C-900.33937378 978.15235832 -900.24888751 1017.47361207 -900.15622807 1056.79486084 C-900.1504869 1059.23190411 -900.14474583 1061.66894738 -900.13900485 1064.10599065 C-900.1332529 1066.54749123 -900.12750095 1068.98899182 -900.12174898 1071.4304924 C-900.11021735 1076.32540639 -900.0986873 1081.22032038 -900.0871582 1086.11523438 C-900.08429928 1087.32875975 -900.08144035 1088.54228513 -900.07849479 1089.792584 C-899.9852125 1129.39900862 -899.8957435 1169.00544063 -899.80845327 1208.61187887 C-899.71547689 1250.79182877 -899.61910953 1292.97176959 -899.51887316 1335.15170288 C-899.50788954 1339.77895098 -899.49691971 1344.40619911 -899.48596001 1349.03344727 C-899.48326113 1350.17225955 -899.48056225 1351.31107184 -899.47778159 1352.4843936 C-899.43465297 1370.71604726 -899.39457831 1388.94770638 -899.3556361 1407.17936942 C-899.31652408 1425.45425137 -899.27394332 1443.72912273 -899.22788054 1462.0039885 C-899.20069824 1472.82750656 -899.17605976 1483.65102314 -899.15519245 1494.47455525 C-899.14095961 1501.72180461 -899.1232757 1508.96904051 -899.10291146 1516.21627522 C-899.0914473 1520.32957837 -899.08135424 1524.44287041 -899.07551158 1528.55618572 C-899.06328002 1536.44752715 -899.02466071 1544.33700754 -898.92517633 1552.22776711 C-898.88118829 1556.31746965 -898.91397477 1560.39912868 -898.99943642 1564.48810931 C-899.03533971 1566.51572779 -899.04716882 1568.54191005 -899.04953807 1570.56982398 C-899.05502754 1573.05213132 -899.10014324 1575.53481984 -899.19374833 1578.01536775 C-899.1533438 1583.01375834 -899.09381604 1586.0124512 -895.5002327 1589.68506098 C-890.73848058 1593.09473024 -885.78499356 1595.79823323 -880.27734375 1597.76953125 C-874.93260545 1599.80166164 -870.11827835 1602.16572243 -865.19921875 1605.05859375 C-863.76244638 1605.86430727 -862.32353945 1606.66622308 -860.8828125 1607.46484375 C-860.1079248 1607.89667969 -859.33303711 1608.32851562 -858.53466797 1608.7734375 C-852.94976764 1611.87947833 -847.35617761 1614.96981266 -841.76171875 1618.05859375 C-840.82936401 1618.57339798 -840.82936401 1618.57339798 -839.87817383 1619.09860229 C-830.34483229 1624.36019272 -820.78224956 1629.56553871 -811.20141602 1634.74023438 C-804.06616432 1638.59745094 -796.96731375 1642.51542437 -789.8828125 1646.46484375 C-783.51788532 1650.01194395 -777.14062158 1653.53670987 -770.76171875 1657.05859375 C-770.14014893 1657.40179657 -769.5185791 1657.74499939 -768.87817383 1658.09860229 C-759.34483229 1663.36019272 -749.78224956 1668.56553871 -740.20141602 1673.74023438 C-733.80340673 1677.19890808 -727.43060279 1680.69883963 -721.07861328 1684.24121094 C-712.84489544 1688.83263834 -704.588227 1693.38236639 -696.33251953 1697.93408203 C-695.06933593 1698.63053384 -693.80615234 1699.32698566 -692.54296875 1700.0234375 C-691.59561356 1700.5457193 -691.59561356 1700.5457193 -690.62911987 1701.07855225 C-686.22372392 1703.50767026 -681.82040697 1705.94052641 -677.41796875 1708.375 C-665.04025586 1715.2177421 -652.6429965 1722.02037799 -640.19873047 1728.74169922 C-633.06436258 1732.59840591 -625.96642275 1736.51592107 -618.8828125 1740.46484375 C-612.51788532 1744.01194395 -606.14062158 1747.53670987 -599.76171875 1751.05859375 C-598.82936401 1751.57339798 -598.82936401 1751.57339798 -597.87817383 1752.09860229 C-588.34483229 1757.36019272 -578.78224956 1762.56553871 -569.20141602 1767.74023438 C-562.80340673 1771.19890808 -556.43060279 1774.69883963 -550.07861328 1778.24121094 C-541.84489544 1782.83263834 -533.588227 1787.38236639 -525.33251953 1791.93408203 C-524.06933593 1792.63053384 -522.80615234 1793.32698566 -521.54296875 1794.0234375 C-520.91139862 1794.37162537 -520.27982849 1794.71981323 -519.62911987 1795.07855225 C-515.22372392 1797.50767027 -510.82041058 1799.94053293 -506.41796875 1802.375 C-503.97020803 1803.7281469 -501.5222816 1805.08099352 -499.07421875 1806.43359375 C-498.16943283 1806.93353348 -498.16943283 1806.93353348 -497.24636841 1807.443573 C-489.02506481 1811.98431713 -480.77930037 1816.47755323 -472.51171875 1820.93359375 C-464.83317319 1825.07219107 -457.21520978 1829.30214759 -449.63671875 1833.62109375 C-441.02098752 1838.52942255 -432.32394256 1843.27003091 -423.57421875 1847.93359375 C-414.57952656 1852.7281266 -405.61877162 1857.57154302 -396.72265625 1862.546875 C-390.5213033 1866.01499961 -384.29660284 1869.44090697 -378.07421875 1872.87109375 C-375.56378179 1874.25517153 -373.05337184 1875.6392983 -370.54296875 1877.0234375 C-369.91141876 1877.3716153 -369.27986877 1877.71979309 -368.62918091 1878.07852173 C-364.223762 1880.5076452 -359.82043047 1882.94052193 -355.41796875 1885.375 C-352.97020803 1886.7281469 -350.5222816 1888.08099352 -348.07421875 1889.43359375 C-347.16943283 1889.93353348 -347.16943283 1889.93353348 -346.24636841 1890.443573 C-338.02506481 1894.98431713 -329.77930037 1899.47755323 -321.51171875 1903.93359375 C-313.83317319 1908.07219107 -306.21520978 1912.30214759 -298.63671875 1916.62109375 C-290.02098752 1921.52942255 -281.32394256 1926.27003091 -272.57421875 1930.93359375 C-263.57952656 1935.7281266 -254.61877162 1940.57154302 -245.72265625 1945.546875 C-239.5213033 1949.01499961 -233.29660284 1952.44090697 -227.07421875 1955.87109375 C-224.56378179 1957.25517153 -222.05337184 1958.6392983 -219.54296875 1960.0234375 C-218.91141876 1960.3716153 -218.27986877 1960.71979309 -217.62918091 1961.07852173 C-213.223762 1963.5076452 -208.82043047 1965.94052193 -204.41796875 1968.375 C-201.97020803 1969.7281469 -199.5222816 1971.08099352 -197.07421875 1972.43359375 C-196.16943283 1972.93353348 -196.16943283 1972.93353348 -195.24636841 1973.443573 C-187.02506481 1977.98431713 -178.77930037 1982.47755323 -170.51171875 1986.93359375 C-162.83317319 1991.07219107 -155.21520978 1995.30214759 -147.63671875 1999.62109375 C-139.02098752 2004.52942255 -130.32394256 2009.27003091 -121.57421875 2013.93359375 C-112.59649949 2018.71907935 -103.65195676 2023.55211511 -94.7734375 2028.51953125 C-90.82602228 2030.72736435 -86.86767372 2032.91508882 -82.90625 2035.09765625 C-82.28485138 2035.44004837 -81.66345276 2035.78244049 -81.02322388 2036.13520813 C-78.46707469 2037.54340339 -75.91077575 2038.95132581 -73.35412598 2040.35861206 C-67.40034304 2043.63638722 -61.44726278 2046.91387264 -55.5390625 2050.2734375 C-54.41201904 2050.91430298 -54.41201904 2050.91430298 -53.26220703 2051.56811523 C-51.93147629 2052.32797036 -50.6028545 2053.09153665 -49.27685547 2053.85961914 C-46.27522585 2055.6858134 -46.27522585 2055.6858134 -42.88671875 2056.24609375 C-42.88671875 1709.74609375 -42.88671875 1363.24609375 -42.88671875 1006.24609375 C-51.13671875 1002.28609375 -59.38671875 998.32609375 -67.88671875 994.24609375 C-72.76276387 991.89403477 -77.63814446 989.54074733 -82.51171875 987.18359375 C-92.0451946 982.57581144 -101.58924404 977.99080796 -111.14501953 973.42944336 C-118.90281068 969.72345346 -126.64589833 965.98734734 -134.38671875 962.24609375 C-144.99196261 957.12069895 -155.60975467 952.02227396 -166.23828125 946.9453125 C-181.96893111 939.43089785 -197.67658915 931.86891743 -213.37335205 924.2840271 C-222.28689342 919.9773644 -231.21121884 915.69391381 -240.14501953 911.42944336 C-247.90281068 907.72345346 -255.64589833 903.98734734 -263.38671875 900.24609375 C-273.99196261 895.12069895 -284.60975467 890.02227396 -295.23828125 884.9453125 C-310.96757884 877.43154382 -326.67368737 869.86981588 -342.36932373 862.28604126 C-352.3141169 857.48155017 -362.27233056 852.70574044 -372.23828125 847.9453125 C-387.96757884 840.43154382 -403.67368737 832.86981588 -419.36932373 825.28604126 C-429.3141169 820.48155017 -439.27233056 815.70574044 -449.23828125 810.9453125 C-464.96757884 803.43154382 -480.67368737 795.86981588 -496.36932373 788.28604126 C-506.3141169 783.48155017 -516.27233056 778.70574044 -526.23828125 773.9453125 C-541.96757884 766.43154382 -557.67368737 758.86981588 -573.36932373 751.28604126 C-583.31149599 746.48281638 -593.26703854 741.7081707 -603.23046875 736.94921875 C-619.1518077 729.34383717 -635.04900213 721.68806716 -650.94482422 714.02954102 C-658.04465105 710.61033058 -665.15056381 707.20417336 -672.26171875 703.80859375 C-681.60738425 699.34573909 -690.93564416 694.84734532 -700.26019287 690.34060669 C-708.29396939 686.45810027 -716.33429333 682.58981523 -724.38671875 678.74609375 C-733.69125577 674.30469293 -742.97795239 669.82693314 -752.26074219 665.34033203 C-760.29433606 661.45791826 -768.33447813 657.58972702 -776.38671875 653.74609375 C-785.06510896 649.60357604 -793.7285751 645.43070329 -802.38671875 641.24609375 C-812.99196261 636.12069895 -823.60975467 631.02227396 -834.23828125 625.9453125 C-840.16555779 623.1138965 -846.08918565 620.27491617 -852.01171875 617.43359375 C-853.02766113 616.94697266 -854.04360352 616.46035156 -855.09033203 615.95898438 C-860.29454584 613.46329236 -865.49204155 610.95481507 -870.67678833 608.41896057 C-873.31087799 607.13094252 -875.94690202 605.84690774 -878.58294678 604.56289673 C-879.85468083 603.94191979 -881.1254186 603.31889774 -882.39508057 602.69369507 C-884.17363449 601.81801787 -885.95590203 600.94989583 -887.73828125 600.08203125 C-889.26702881 599.33252197 -889.26702881 599.33252197 -890.82666016 598.56787109 C-894.1245255 597.14337429 -897.42837519 596.20496026 -900.88671875 595.24609375 Z M827.0234375 621.17578125 C826.40544785 621.48500519 825.78745819 621.79422913 825.15074158 622.11282349 C823.82911972 622.77514981 822.50847445 623.4394278 821.1887207 624.10546875 C819.24451382 625.08641485 817.29741444 626.06137856 815.34960938 627.03515625 C808.30741833 630.56645817 801.31804381 634.18593646 794.359375 637.87890625 C781.12338481 644.88945543 767.68064783 651.49496546 754.26989746 658.16259766 C735.20846268 667.63903288 735.20846268 667.63903288 716.32397461 677.46179199 C703.8695786 684.05886967 691.19365986 690.23221349 678.57421875 696.50537109 C662.04849691 704.7105906 662.04849691 704.7105906 645.67578125 713.21484375 C632.67586799 720.12846629 619.45318503 726.6080567 606.26989746 733.16259766 C587.34664667 742.55853231 587.34664667 742.55853231 568.60838318 752.31622314 C561.30890191 756.19038694 553.91532156 759.87319706 546.51953125 763.55859375 C545.21382013 764.21019218 543.90815574 764.86188425 542.60253906 765.51367188 C539.43999008 767.09222375 536.27681415 768.66951447 533.11328125 770.24609375 C533.08864905 770.91078061 533.06401686 771.57546746 533.03863823 772.26029634 C531.57686097 811.70077473 530.10776253 851.14097438 528.62922467 890.58082816 C528.45149381 895.32194986 528.27382379 900.06307383 528.09619141 904.80419922 C528.06082865 905.74802713 528.02546589 906.69185505 527.98903154 907.66428381 C527.41743388 922.92403347 526.85075984 938.18396216 526.28592195 953.44396335 C525.70575031 969.11524838 525.12024904 984.78632782 524.5298537 1000.45723104 C524.16604618 1010.11822061 523.80634081 1019.77934468 523.45196889 1029.44068503 C523.20819215 1036.07593909 522.9592144 1042.71098559 522.70624651 1049.34589553 C522.56069503 1053.16741096 522.41734152 1056.9889734 522.28019714 1060.81080055 C520.38183114 1113.55728558 520.38183114 1113.55728558 502.61328125 1130.93359375 C489.66377759 1141.5286422 474.57844051 1145.3772879 458.11328125 1144.24609375 C443.38293611 1142.21019239 430.73039065 1135.62662972 421.11328125 1124.24609375 C411.45227443 1111.19902645 409.6211705 1097.9681138 409.81640625 1082.13745117 C409.82752479 1080.42346768 409.83827674 1078.70948178 409.84869385 1076.99549389 C410.02177861 1056.09990985 410.88547947 1035.22028427 411.72871399 1014.34332299 C411.95892956 1008.5968872 412.17967205 1002.85008695 412.40136719 997.10331726 C412.82066899 986.26613714 413.24688447 975.42924282 413.67634201 964.59246081 C414.44621488 945.16452353 415.20764045 925.73625799 415.96101761 906.30767411 C416.22461517 899.51820062 416.4924293 892.72891139 416.76385498 885.9397465 C416.93231327 881.70842659 417.0975629 877.4769853 417.2620697 873.2455101 C417.33808845 871.3074664 417.41542135 869.36947365 417.49427795 867.43154335 C418.01168535 854.69568803 418.20378805 841.99237105 418.11328125 829.24609375 C416.97159485 829.7772731 415.82990845 830.30845245 414.65362549 830.85572815 C414.01142689 831.15451653 413.36922829 831.45330492 412.70756912 831.7611475 C402.08431178 836.71451214 391.59867193 841.9468991 381.11328125 847.18359375 C380.36703491 847.55546814 379.62078857 847.92734253 378.85192871 848.31048584 C370.55502583 852.44757228 362.3030281 856.65441228 354.11328125 861 C341.10787888 867.89221055 327.89956648 874.3825212 314.71972656 880.93261719 C298.59245955 888.94462292 298.59245955 888.94462292 282.61328125 897.24609375 C269.78026848 904.06684421 256.73314914 910.46522703 243.71972656 916.93261719 C227.62350199 924.92861308 227.62350199 924.92861308 211.67578125 933.21484375 C198.44597479 940.24753034 184.98975377 946.8364731 171.57421875 953.50537109 C159.77562152 959.37360356 147.99626629 965.25602908 136.36126709 971.44314575 C125.13967948 977.38547354 113.73311739 982.96963512 102.36328125 988.62109375 C97.74231595 990.91822468 93.12272078 993.21807943 88.50390625 995.51953125 C87.46220276 996.03623383 86.42049927 996.5529364 85.347229 997.08529663 C84.36800476 997.57325714 83.38878052 998.06121765 82.37988281 998.56396484 C81.52896057 998.98680756 80.67803833 999.40965027 79.80133057 999.8453064 C76.5225697 1001.55392339 73.32339171 1003.41174491 70.11328125 1005.24609375 C70.11328125 1350.75609375 70.11328125 1696.26609375 70.11328125 2052.24609375 C73.58122186 2050.8589175 76.4815014 2049.57042737 79.66796875 2047.7421875 C80.96347656 2047.0006543 80.96347656 2047.0006543 82.28515625 2046.24414062 C83.1771875 2045.72916016 84.06921875 2045.21417969 84.98828125 2044.68359375 C85.84164063 2044.19568359 86.695 2043.70777344 87.57421875 2043.20507812 C94.17271267 2039.41579595 100.69773828 2035.50936733 107.21728516 2031.58666992 C113.58291087 2027.75816979 119.97463261 2023.97349665 126.36328125 2020.18359375 C127.7662889 2019.35093313 129.16928343 2018.51825039 130.57226562 2017.68554688 C140.34138603 2011.88795738 150.11394203 2006.09617205 159.88769531 2000.30639648 C168.63290741 1995.12526355 177.37362637 1989.9365934 186.11328125 1984.74609375 C201.53125645 1975.58949369 216.95740756 1966.44675304 232.38574219 1957.30761719 C246.31605965 1949.05553089 260.24214231 1940.79638846 274.16317749 1932.52865601 C284.40204004 1926.44787614 294.64492942 1920.37394936 304.890625 1914.3046875 C313.63483349 1909.1240787 322.37461409 1903.93604247 331.11328125 1898.74609375 C342.0353792 1892.25939192 352.96117028 1885.77898904 363.890625 1879.3046875 C372.63483349 1874.1240787 381.37461409 1868.93604247 390.11328125 1863.74609375 C401.0353792 1857.25939192 411.96117028 1850.77898904 422.890625 1844.3046875 C431.63483354 1839.12407867 440.3745984 1833.93601611 449.11328125 1828.74609375 C464.53125645 1819.58949369 479.95740756 1810.44675304 495.38574219 1801.30761719 C509.31605965 1793.05553089 523.24214231 1784.79638846 537.16317749 1776.52865601 C547.40204004 1770.44787614 557.64492942 1764.37394936 567.890625 1758.3046875 C576.63483349 1753.1240787 585.37461409 1747.93604247 594.11328125 1742.74609375 C605.0353792 1736.25939192 615.96117028 1729.77898904 626.890625 1723.3046875 C635.63483349 1718.1240787 644.37461409 1712.93604247 653.11328125 1707.74609375 C664.0353792 1701.25939192 674.96117028 1694.77898904 685.890625 1688.3046875 C694.63483354 1683.12407867 703.3745984 1677.93601611 712.11328125 1672.74609375 C727.53125645 1663.58949369 742.95740756 1654.44675304 758.38574219 1645.30761719 C764.4950366 1641.68857369 770.60389887 1638.06880348 776.71191406 1634.44760132 C779.84881186 1632.58796752 782.98613324 1630.72905258 786.12402344 1628.87109375 C789.62357548 1626.79898208 793.12237338 1624.72560167 796.62075806 1622.65151978 C797.95511643 1621.86070155 799.28971756 1621.07029274 800.62460327 1620.28036499 C801.2521048 1619.90900421 801.87960632 1619.53764343 802.52612305 1619.1550293 C803.11548254 1618.80840754 803.70484203 1618.46178578 804.31206089 1618.10466033 C805.56897228 1617.35365361 806.81726732 1616.58784902 808.05251497 1615.80171889 C811.54078458 1613.61127875 814.83947341 1611.92474671 818.74516392 1610.59994221 C824.19457601 1608.50081314 828.6617777 1606.07743878 832.11328125 1601.24609375 C835.39519891 1591.19648576 834.36063396 1579.77299892 834.10541806 1569.32434675 C834.01419689 1564.73050724 834.0306703 1560.13680828 834.03377724 1555.54223824 C834.02533357 1547.35712203 833.951599 1539.17457152 833.8377552 1530.99027443 C833.65028421 1517.37409316 833.59879323 1503.75882561 833.56187439 1490.14152527 C833.54705627 1485.24648444 833.53114326 1480.35144788 833.51468182 1475.45641232 C833.50847779 1473.59164479 833.50847779 1473.59164479 833.50214842 1471.68920519 C833.46971029 1462.52235402 833.41857799 1453.35568121 833.36028004 1444.1889658 C833.09086884 1401.26360497 833.1377684 1358.34307973 833.30297152 1315.41732274 C833.31301099 1312.80121041 833.32291647 1310.18509761 833.33277628 1307.5689846 C833.39334159 1291.50295149 833.45561021 1275.43692544 833.52047431 1259.37090909 C833.62441816 1233.5469446 833.71073777 1207.72296243 833.78475952 1181.89889526 C833.78741465 1180.97362757 833.79006979 1180.04835988 833.79280538 1179.09505377 C833.82512615 1167.81514804 833.85678616 1156.5352405 833.8882608 1145.25533238 C833.91738603 1134.83301662 833.9473188 1124.4107032 833.97733498 1113.98838997 C833.98004602 1113.04680524 833.98275707 1112.10522051 833.98555027 1111.13510291 C833.99652195 1107.32490146 834.00749621 1103.51470002 834.01847824 1099.7044986 C834.0377452 1093.01886943 834.05693288 1086.33324003 834.07608926 1079.64761055 C834.15374562 1052.55974677 834.2332674 1025.4718888 834.3137207 998.3840332 C834.33675029 990.62957924 834.35977838 982.87512528 834.38279057 975.12067127 C834.38562891 974.1642518 834.38846726 973.20783232 834.39139162 972.22243044 C834.46723014 946.65919714 834.54175536 921.09596001 834.61588567 895.5327217 C834.62388791 892.77361111 834.63189041 890.01450052 834.63989343 887.25538994 C834.6451948 885.42760287 834.65049518 883.5998158 834.65579455 881.77202872 C834.69198548 869.29314491 834.72866429 856.81426262 834.76572008 844.33538134 C834.82737793 823.56449407 834.88771113 802.79360335 834.94555664 782.02270508 C834.9477281 781.24383172 834.94989956 780.46495835 834.95213682 779.66248277 C835.10188275 725.8569733 835.17028974 672.05183214 835.11328125 618.24609375 C832.00370285 618.24609375 829.78810362 619.78840137 827.0234375 621.17578125 Z " fill="#52786F" transform="translate(1033.88671875,25.75390625)"/>
<path d="M0 0 C2.50626927 1.25150146 5.01312591 2.50182457 7.51994324 3.75222778 C13.58581906 6.77883535 19.64953386 9.80974717 25.71240888 12.84236073 C30.64312011 15.30861229 35.57454294 17.77343528 40.50646019 20.23727417 C41.56418322 20.76568929 41.56418322 20.76568929 42.64327439 21.30477947 C44.07625835 22.02066551 45.50924277 22.73655065 46.94222762 23.4524349 C60.33673604 30.14426873 73.72864984 36.84128169 87.11976763 43.53989732 C99.34975072 49.65747621 111.58301238 55.76846618 123.81782613 61.87637746 C136.41466377 68.16509536 149.00926083 74.4582794 161.6014697 80.75626087 C168.65762549 84.28529246 175.71463957 87.81258038 182.77401161 91.33517456 C188.77876064 94.33157697 194.78137127 97.33221234 200.78131685 100.33822227 C203.83742297 101.86920796 206.89443253 103.3983067 209.95412064 104.92212296 C213.28032067 106.5799731 216.60270371 108.24524458 219.92427063 109.91235352 C220.87739822 110.38523017 221.83052581 110.85810682 222.81253606 111.34531307 C240.03103822 120.02321215 252.81743049 130.18241759 259.98706055 148.44140625 C264.67528954 163.29878894 263.7981627 178.62869365 257.2331543 192.81640625 C253.96421766 198.90003523 249.75670677 203.73709127 244.8581543 208.56640625 C244.29354492 209.14132812 243.72893555 209.71625 243.1472168 210.30859375 C232.19186746 220.62265434 217.21842491 224.2267132 202.5769043 223.83984375 C192.04534644 223.0654645 183.53087611 219.73821232 174.29174805 214.87109375 C169.40794587 212.29903917 164.41799551 209.97036222 159.4206543 207.62890625 C152.22584526 204.23578917 145.16613919 200.66591156 138.16650391 196.88867188 C133.01486483 194.12819382 127.78072973 191.59628494 122.4831543 189.12890625 C116.05084384 186.13230164 109.74010068 182.97614468 103.4831543 179.62890625 C95.90138447 175.57337614 88.20454593 171.83395876 80.42211914 168.18041992 C75.2373265 165.73453568 70.14128552 163.18527237 65.1081543 160.44140625 C59.26008528 157.25328853 53.30723241 154.37262048 47.26782227 151.56591797 C37.20572211 146.88369041 27.30420764 141.91402808 17.5456543 136.62890625 C11.31374798 133.25597578 4.9669693 130.18139981 -1.47900391 127.23852539 C-6.84735571 124.75439174 -12.06393738 122.03006124 -17.2824707 119.25 C-25.17195731 115.05700466 -33.1488742 111.05518926 -41.16547394 107.1126709 C-43.18264639 106.12030144 -45.19874959 105.12579161 -47.21453857 104.13061523 C-55.53434984 100.02313349 -55.53434984 100.02313349 -63.86645508 95.94067383 C-67.31814161 94.25579436 -70.76253658 92.55674666 -74.20274353 90.84855843 C-75.49175035 90.2116553 -76.78322825 89.57972303 -78.07740784 88.95339775 C-94.46500108 81.0155919 -106.56161974 70.77565902 -113.17700195 53.46875 C-118.1173654 38.60765673 -116.78934394 23.82493542 -110.85668945 9.453125 C-103.85711517 -4.33155194 -92.50582789 -13.85451202 -78.2277832 -19.43359375 C-49.72826267 -28.66888142 -24.72896448 -12.37875963 0 0 Z " fill="#52786F" transform="translate(283.141845703125,1372.43359375)"/>
<path d="M0 0 C2.00722677 1.0727113 4.01508373 2.14424393 6.0234375 3.21484375 C17.27512959 9.22998956 28.47568857 15.33960666 39.67041016 21.45996094 C46.76475166 25.33565644 53.87967214 29.17228816 61 33 C70.9288087 38.33880043 80.84437739 43.70032274 90.7265625 49.125 C94.287161 51.07652001 97.86572338 52.98805887 101.4609375 54.875 C120.03364991 64.69227125 131.58954505 75.36469253 138 96 C140.98737448 110.70853804 138.57175952 126.48456746 130.81640625 139.41015625 C122.03082586 151.93669345 110.68993152 160.58700398 95.8359375 164.58203125 C91.5591898 165.21235082 87.3179113 165.26617048 83 165.3125 C82.12988281 165.34150391 81.25976562 165.37050781 80.36328125 165.40039062 C66.61462706 165.53085231 55.27809999 159.43052372 43.5625 153 C42.14230833 152.23165963 40.72156484 151.46433843 39.30029297 150.69799805 C35.81732072 148.81652323 32.34159588 146.92215756 28.86883545 145.02191162 C26.22914648 143.57848393 23.58520811 142.14290861 20.94140625 140.70703125 C17.42886492 138.79656302 13.92026702 136.8791013 10.4140625 134.95703125 C4.29311051 131.60626928 -1.85334667 128.3033096 -8 125 C-16.94803325 120.18961091 -25.88962371 115.36815629 -34.79052734 110.47094727 C-39.59044844 107.83470984 -44.41319419 105.25850857 -49.28125 102.75 C-67.44915168 93.31883419 -81.87914206 83.69877435 -89.21875 63.578125 C-93.75501603 48.60844709 -92.60419584 33.4305092 -85.71875 19.38671875 C-77.90127826 5.42384561 -66.26165705 -4.17925436 -51 -9 C-32.41800998 -14.16166389 -16.35944322 -8.88848047 0 0 Z " fill="#52786F" transform="translate(263,1508)"/>
</svg>
