<svg width="128" height="128" viewBox="0 0 128 128" xmlns="http://www.w3.org/2000/svg">

  <defs>
    <linearGradient id="bg" x1="0%" y1="0%" x2="100%" y2="100%">
      <stop offset="0%" stop-color="#52796F"></stop>
      <stop offset="100%" stop-color="#5D536B"></stop>
    </linearGradient>
  </defs>

  <!-- Background Circle -->
  <circle cx="64" cy="64" r="60" fill="url(#bg)"></circle>

  <!-- Package Icon -->
  <g transform="translate(32 32) scale(2.67)" stroke="white" stroke-width="2" fill="none" stroke-linecap="round" stroke-linejoin="round">

    <path d="M21 8a2 2 0 0 0-1-1.73l-7-4a2 2 0 0 0-2 0l-7 4A2 2 0 0 0 3 8v8a2 2 0 0 0 1 1.73l7 4a2 2 0 0 0 2 0l7-4A2 2 0 0 0 21 16Z"></path>
    <path d="m3.3 7 8.7 5 8.7-5"></path>
    <path d="M12 22V12"></path>

  </g>

</svg>