<?xml version="1.0" encoding="UTF-8"?>
<svg version="1.1" xmlns="http://www.w3.org/2000/svg" width="500" height="500">
<path d="M0 0 C4.56870589 1.38316761 9.20776282 2.51003021 13.8359375 3.67480469 C22.02607589 6.08814013 26.29037457 9.20570101 32.140625 15.35449219 C32.82447266 16.05638672 33.50832031 16.75828125 34.21289062 17.48144531 C35.88582317 19.20117317 37.54863873 20.92954229 39.203125 22.66699219 C37.43310547 26.53613281 37.43310547 26.53613281 35.36328125 27.71386719 C34.32494141 28.06191406 34.32494141 28.06191406 33.265625 28.41699219 C32.57597656 28.65933594 31.88632812 28.90167969 31.17578125 29.15136719 C29.203125 29.66699219 29.203125 29.66699219 26.203125 29.66699219 C26.203125 39.89699219 26.203125 50.12699219 26.203125 60.66699219 C13.59401145 66.39840744 13.59401145 66.39840744 7.328125 68.66699219 C2.22333068 70.5344956 -2.82432319 72.49088938 -7.859375 74.54199219 C-17.35150744 78.12042155 -22.75095023 76.13925408 -31.87255859 72.42431641 C-35.37247817 71.04690578 -38.93112488 69.83609213 -42.484375 68.60449219 C-59.96907413 62.49479306 -59.96907413 62.49479306 -61.796875 60.66699219 C-61.88478475 58.37547802 -61.90381538 56.08126694 -61.89453125 53.78808594 C-61.8931163 53.10142349 -61.89170135 52.41476105 -61.89024353 51.70729065 C-61.88462979 49.50631418 -61.87207507 47.3054381 -61.859375 45.10449219 C-61.85436176 43.61556136 -61.84979855 42.12662895 -61.84570312 40.63769531 C-61.83465593 36.98076144 -61.81738213 33.3238866 -61.796875 29.66699219 C-62.56773437 29.48523438 -63.33859375 29.30347656 -64.1328125 29.11621094 C-65.63714844 28.73916016 -65.63714844 28.73916016 -67.171875 28.35449219 C-68.16960937 28.11085937 -69.16734375 27.86722656 -70.1953125 27.61621094 C-72.796875 26.66699219 -72.796875 26.66699219 -74.796875 23.66699219 C-73.421875 21.66699219 -73.421875 21.66699219 -71.796875 19.66699219 C-71.136875 19.66699219 -70.476875 19.66699219 -69.796875 19.66699219 C-69.41595703 18.81427734 -69.41595703 18.81427734 -69.02734375 17.94433594 C-64.68472721 9.90704882 -58.0454373 5.77394553 -49.53417969 3.20288086 C-44.53839729 1.78866126 -39.49269431 0.54109764 -34.4375 -0.64160156 C-32.04193825 -1.26884184 -29.88516189 -2.05733029 -27.609375 -3.02050781 C-18.06426186 -6.64842683 -9.22206152 -2.88995547 0 0 Z M-17.796875 0.66699219 C-18.126875 3.96699219 -18.456875 7.26699219 -18.796875 10.66699219 C-20.116875 10.99699219 -21.436875 11.32699219 -22.796875 11.66699219 C-22.796875 8.36699219 -22.796875 5.06699219 -22.796875 1.66699219 C-28.32363403 2.30554204 -33.42054851 3.60392573 -38.734375 5.22949219 C-39.51361328 5.46345703 -40.29285156 5.69742188 -41.09570312 5.93847656 C-42.99744687 6.5101664 -44.89735726 7.0879491 -46.796875 7.66699219 C-46.796875 8.32699219 -46.796875 8.98699219 -46.796875 9.66699219 C-42.48901083 11.12082186 -38.17640843 12.55901148 -33.85839844 13.98242188 C-31.94105224 14.61911524 -30.02888207 15.27133797 -28.1171875 15.92480469 C-27.00085938 16.29347656 -25.88453125 16.66214844 -24.734375 17.04199219 C-23.73277344 17.37972656 -22.73117188 17.71746094 -21.69921875 18.06542969 C-16.52583634 19.13770545 -11.86935334 17.48186388 -6.9609375 15.81933594 C-5.89746094 15.46162109 -4.83398438 15.10390625 -3.73828125 14.73535156 C-2.64386719 14.36216797 -1.54945313 13.98898438 -0.421875 13.60449219 C1.25455078 13.03891602 1.25455078 13.03891602 2.96484375 12.46191406 C5.71234266 11.53433965 8.45834728 10.60258181 11.203125 9.66699219 C10.35541364 7.41775918 10.35541364 7.41775918 7.7890625 6.70214844 C-0.67458909 4.13834157 -9.1055601 2.25378827 -17.796875 0.66699219 Z M-59.375 13.78417969 C-60.69757813 15.14929688 -60.69757813 15.14929688 -62.046875 16.54199219 C-62.93890625 17.44691406 -63.8309375 18.35183594 -64.75 19.28417969 C-67.01407842 21.39630074 -67.01407842 21.39630074 -66.796875 23.66699219 C-62.7408271 25.0750246 -58.684007 26.48080259 -54.62646484 27.88452148 C-53.24701993 28.36209639 -51.86778573 28.84028036 -50.48876953 29.3190918 C-48.50348469 30.00828765 -46.51744567 30.6952701 -44.53125 31.38183594 C-42.74025879 32.00239868 -42.74025879 32.00239868 -40.91308594 32.63549805 C-37.40156772 33.84318563 -37.40156772 33.84318563 -33.796875 34.66699219 C-31.98388008 33.43745203 -31.98388008 33.43745203 -30.796875 31.66699219 C-30.796875 31.00699219 -30.796875 30.34699219 -30.796875 29.66699219 C-30.136875 29.66699219 -29.476875 29.66699219 -28.796875 29.66699219 C-28.796875 29.00699219 -28.796875 28.34699219 -28.796875 27.66699219 C-28.136875 27.66699219 -27.476875 27.66699219 -26.796875 27.66699219 C-26.796875 27.00699219 -26.796875 26.34699219 -26.796875 25.66699219 C-26.136875 25.66699219 -25.476875 25.66699219 -24.796875 25.66699219 C-24.796875 25.00699219 -24.796875 24.34699219 -24.796875 23.66699219 C-24.136875 23.66699219 -23.476875 23.66699219 -22.796875 23.66699219 C-22.796875 23.00699219 -22.796875 22.34699219 -22.796875 21.66699219 C-23.70566406 21.3640625 -24.61445313 21.06113281 -25.55078125 20.74902344 C-26.15108154 20.54881592 -26.75138184 20.3486084 -27.36987305 20.14233398 C-28.70831799 19.69640466 -30.04702752 19.25126876 -31.38598633 18.80688477 C-34.92792863 17.63009791 -38.46453289 16.44068587 -41.9921875 15.22167969 C-42.6617749 14.99246826 -43.3313623 14.76325684 -44.02124023 14.52709961 C-45.89958845 13.88354168 -47.77601479 13.23438257 -49.65234375 12.58496094 C-53.88305794 11.34990773 -55.87560158 10.91043129 -59.375 13.78417969 Z M3.515625 15.97949219 C2.24162418 16.387969 0.96753651 16.79617507 -0.30664062 17.20410156 C-2.10198242 17.79868164 -2.10198242 17.79868164 -3.93359375 18.40527344 C-5.58427856 18.94728394 -5.58427856 18.94728394 -7.26831055 19.50024414 C-8.10273682 19.885271 -8.93716309 20.27029785 -9.796875 20.66699219 C-10.126875 21.65699219 -10.456875 22.64699219 -10.796875 23.66699219 C-10.136875 23.66699219 -9.476875 23.66699219 -8.796875 23.66699219 C-8.796875 24.32699219 -8.796875 24.98699219 -8.796875 25.66699219 C-8.136875 25.66699219 -7.476875 25.66699219 -6.796875 25.66699219 C-6.136875 26.98699219 -5.476875 28.30699219 -4.796875 29.66699219 C-4.136875 29.66699219 -3.476875 29.66699219 -2.796875 29.66699219 C-2.796875 30.32699219 -2.796875 30.98699219 -2.796875 31.66699219 C-1.33854142 33.29213686 -1.33854142 33.29213686 0.203125 34.66699219 C7.39699057 32.62850215 14.36021665 30.18542851 21.328125 27.47949219 C22.76285156 26.92745117 22.76285156 26.92745117 24.2265625 26.36425781 C26.55336789 25.46843774 28.87883521 24.56931446 31.203125 23.66699219 C31.203125 22.67699219 31.203125 21.68699219 31.203125 20.66699219 C30.543125 20.66699219 29.883125 20.66699219 29.203125 20.66699219 C29.203125 20.00699219 29.203125 19.34699219 29.203125 18.66699219 C28.543125 18.66699219 27.883125 18.66699219 27.203125 18.66699219 C27.203125 18.00699219 27.203125 17.34699219 27.203125 16.66699219 C19.2815246 9.10546454 13.17460875 12.76647284 3.515625 15.97949219 Z M-14.796875 25.66699219 C-14.796875 40.51699219 -14.796875 55.36699219 -14.796875 70.66699219 C-8.51893269 69.2718939 -4.37577796 68.20055967 1.203125 65.66699219 C4.61841602 64.33746517 8.06490985 63.09046533 11.50585938 61.82910156 C14.85611172 60.5890938 18.00074527 59.26818205 21.203125 57.66699219 C21.203125 49.08699219 21.203125 40.50699219 21.203125 31.66699219 C15.21419961 33.99990058 15.21419961 33.99990058 9.23779297 36.36450195 C4.51238031 38.15552897 1.238583 39.17762959 -3.796875 37.66699219 C-3.796875 37.00699219 -3.796875 36.34699219 -3.796875 35.66699219 C-4.456875 35.66699219 -5.116875 35.66699219 -5.796875 35.66699219 C-5.796875 35.00699219 -5.796875 34.34699219 -5.796875 33.66699219 C-6.456875 33.66699219 -7.116875 33.66699219 -7.796875 33.66699219 C-7.796875 33.00699219 -7.796875 32.34699219 -7.796875 31.66699219 C-8.456875 31.66699219 -9.116875 31.66699219 -9.796875 31.66699219 C-9.796875 31.00699219 -9.796875 30.34699219 -9.796875 29.66699219 C-10.456875 29.66699219 -11.116875 29.66699219 -11.796875 29.66699219 C-12.456875 28.34699219 -13.116875 27.02699219 -13.796875 25.66699219 C-14.126875 25.66699219 -14.456875 25.66699219 -14.796875 25.66699219 Z M-20.796875 26.66699219 C-22.33854142 28.04184751 -22.33854142 28.04184751 -23.796875 29.66699219 C-23.796875 30.32699219 -23.796875 30.98699219 -23.796875 31.66699219 C-24.456875 31.66699219 -25.116875 31.66699219 -25.796875 31.66699219 C-25.796875 32.32699219 -25.796875 32.98699219 -25.796875 33.66699219 C-26.456875 33.66699219 -27.116875 33.66699219 -27.796875 33.66699219 C-27.796875 34.32699219 -27.796875 34.98699219 -27.796875 35.66699219 C-28.456875 35.66699219 -29.116875 35.66699219 -29.796875 35.66699219 C-29.796875 36.32699219 -29.796875 36.98699219 -29.796875 37.66699219 C-30.456875 37.66699219 -31.116875 37.66699219 -31.796875 37.66699219 C-31.796875 38.32699219 -31.796875 38.98699219 -31.796875 39.66699219 C-34.29781359 38.89910692 -36.79760054 38.12776062 -39.296875 37.35449219 C-39.99296875 37.14115234 -40.6890625 36.9278125 -41.40625 36.70800781 C-42.45039063 36.38413086 -42.45039063 36.38413086 -43.515625 36.05371094 C-44.45825195 35.76306763 -44.45825195 35.76306763 -45.41992188 35.46655273 C-48.91125319 34.29213716 -52.34784623 32.96037798 -55.796875 31.66699219 C-55.796875 40.57699219 -55.796875 49.48699219 -55.796875 58.66699219 C-51.12523054 60.41940093 -51.12523054 60.41940093 -46.45214844 62.16796875 C-42.73081388 63.55880644 -39.01642344 64.96475308 -35.3125 66.40136719 C-34.23935547 66.81394775 -34.23935547 66.81394775 -33.14453125 67.23486328 C-31.77007597 67.76372142 -30.39758531 68.29772065 -29.02734375 68.83740234 C-25.67867031 70.11894036 -23.44640816 70.66699219 -19.796875 70.66699219 C-18.62136896 66.46326013 -18.63490658 62.37086743 -18.62890625 58.03417969 C-18.62557785 57.20113312 -18.62224945 56.36808655 -18.61882019 55.50979614 C-18.613767 53.7531184 -18.61141137 51.9964311 -18.61157227 50.23974609 C-18.60937726 47.54476326 -18.59118159 44.85018434 -18.57226562 42.15527344 C-18.56933313 40.44824359 -18.56734737 38.7412118 -18.56640625 37.03417969 C-18.55922073 36.22584686 -18.55203522 35.41751404 -18.54463196 34.58468628 C-18.37946226 30.15566751 -18.37946226 30.15566751 -20.796875 26.66699219 Z " fill="#7F7492" transform="translate(268.796875,177.3330078125)"/>
<path d="M0 0 C2.96175123 0.61277612 4.38058783 1.25372522 7 3 C7.36076355 5.10073853 7.36076355 5.10073853 7.34057617 7.72509766 C7.34023628 9.19639633 7.34023628 9.19639633 7.33988953 10.69741821 C7.32440567 11.75891083 7.30892181 12.82040344 7.29296875 13.9140625 C7.28872391 14.99883881 7.28447906 16.08361511 7.28010559 17.20126343 C7.263273 20.67609167 7.22561189 24.15034618 7.1875 27.625 C7.17245911 29.97655414 7.15876967 32.32811735 7.14648438 34.6796875 C7.11335454 40.45332173 7.06310982 46.22661989 7 52 C6.01 52.33 5.02 52.66 4 53 C4.98267859 54.20561184 4.98267859 54.20561184 6.84765625 54.09765625 C8.8984375 54.06510417 10.94921875 54.03255208 13 54 C11 56 11 56 8.1875 56.4375 C3.3578184 56.28874184 -0.82886308 54.30120393 -5.25 52.5 C-10.09868922 50.52499512 -15.05019428 48.84689937 -19.99951172 47.14404297 C-24.42384784 45.60619461 -28.71412886 43.89115463 -33 42 C-31.515 41.505 -31.515 41.505 -30 41 C-30 40.34 -30 39.68 -30 39 C-30.99 38.67 -31.98 38.34 -33 38 C-33 28.76 -33 19.52 -33 10 C-28.545 10.99 -28.545 10.99 -24 12 C-24 11.34 -24 10.68 -24 10 C-26.31 9.34 -28.62 8.68 -31 8 C-25.7907233 6.28782485 -21.61915137 8.93085579 -16.84375 10.99414062 C-12.80267151 12.72652097 -12.80267151 12.72652097 -8.5625 12.30859375 C-6.86619767 11.0645365 -6.86619767 11.0645365 -6 9 C-5.34 9 -4.68 9 -4 9 C-4 8.34 -4 7.68 -4 7 C-3.34 7 -2.68 7 -2 7 C-2 6.34 -2 5.68 -2 5 C-1.34 5 -0.68 5 0 5 C0 4.34 0 3.68 0 3 C0.66 3 1.32 3 2 3 C2 2.34 2 1.68 2 1 C1.34 0.67 0.68 0.34 0 0 Z M4 6 C2.45833358 7.37485532 2.45833358 7.37485532 1 9 C1 9.66 1 10.32 1 11 C0.34 11 -0.32 11 -1 11 C-1 11.66 -1 12.32 -1 13 C-1.66 13 -2.32 13 -3 13 C-3 13.66 -3 14.32 -3 15 C-3.66 15 -4.32 15 -5 15 C-5 15.66 -5 16.32 -5 17 C-5.66 17 -6.32 17 -7 17 C-7 17.66 -7 18.32 -7 19 C-9.50093859 18.23211473 -12.00072554 17.46076843 -14.5 16.6875 C-15.19609375 16.47416016 -15.8921875 16.26082031 -16.609375 16.04101562 C-17.65351563 15.71713867 -17.65351563 15.71713867 -18.71875 15.38671875 C-19.66137695 15.09607544 -19.66137695 15.09607544 -20.62304688 14.79956055 C-24.11437819 13.62514497 -27.55097123 12.29338579 -31 11 C-31 19.91 -31 28.82 -31 38 C-26.32835554 39.75240874 -26.32835554 39.75240874 -21.65527344 41.50097656 C-17.93393888 42.89181425 -14.21954844 44.2977609 -10.515625 45.734375 C-9.44248047 46.14695557 -9.44248047 46.14695557 -8.34765625 46.56787109 C-6.97320097 47.09672924 -5.60071031 47.63072846 -4.23046875 48.17041016 C-0.88179531 49.45194817 1.35046684 50 5 50 C6.17550604 45.79626794 6.16196842 41.70387525 6.16796875 37.3671875 C6.17129715 36.53414093 6.17462555 35.70109436 6.17805481 34.84280396 C6.183108 33.08612621 6.18546363 31.32943891 6.18530273 29.57275391 C6.18749774 26.87777108 6.20569341 24.18319216 6.22460938 21.48828125 C6.22754187 19.7812514 6.22952763 18.07421961 6.23046875 16.3671875 C6.23765427 15.55885468 6.24483978 14.75052185 6.25224304 13.91769409 C6.41741274 9.48867532 6.41741274 9.48867532 4 6 Z " fill="#AAA1BA" transform="translate(244,198)"/>
<path d="M0 0 C7.06494181 0.49578539 13.56661229 2.12800686 20.3515625 4.0625 C23.92716741 5.12038271 23.92716741 5.12038271 27.43359375 5.12109375 C32.871949 6.46132368 35.69549836 10.05345707 39.4375 14.0625 C40.53481445 15.20041992 40.53481445 15.20041992 41.65429688 16.36132812 C43.45055419 18.2280269 45.2312871 20.10724502 47 22 C46.34 23.32 45.68 24.64 45 26 C41.04 26.66 37.08 27.32 33 28 C33 38.23 33 48.46 33 59 C32.01 59 31.02 59 30 59 C30 49.43 30 39.86 30 30 C26.37 31.32 22.74 32.64 19 34 C18.34 34 17.68 34 17 34 C17 34.66 17 35.32 17 36 C10.62047661 39.06707855 10.62047661 39.06707855 7.6875 38.75 C6.44420289 38.19742351 5.21692349 37.60846174 4 37 C4 35.35 4 33.7 4 32 C4.78375 32.2475 5.5675 32.495 6.375 32.75 C10.70001355 33.0482768 13.02202843 32.02619755 16.93359375 30.32421875 C20.72791611 28.68565151 24.57195475 27.21077103 28.4375 25.75 C29.13601074 25.47986084 29.83452148 25.20972168 30.55419922 24.93139648 C33.51263979 23.81036011 35.8084036 23 39 23 C39 22.01 39 21.02 39 20 C38.34 20 37.68 20 37 20 C37 19.34 37 18.68 37 18 C36.34 18 35.68 18 35 18 C33.97388051 16.34928604 32.97691857 14.68029994 32 13 C30.72840348 11.14397385 30.72840348 11.14397385 29 10 C26.37429296 9.74930087 26.37429296 9.74930087 24 10 C24 9.34 24 8.68 24 8 C18.93712557 6.61921606 14.11241829 5.69252351 8.8828125 5.24609375 C7 5 7 5 5 4 C5 3.34 5 2.68 5 2 C3.35 1.67 1.7 1.34 0 1 C0 0.67 0 0.34 0 0 Z " fill="#807692" transform="translate(261,178)"/>
<path d="M0 0 C5.47043262 1.71497045 11.01689265 3.09067745 16.578125 4.4765625 C19.45703125 5.37109375 19.45703125 5.37109375 21.45703125 7.37109375 C15.04041345 6.33418783 8.90979312 5.03908354 2.74609375 2.95703125 C0.23730023 2.31484861 -1.96383125 2.27084459 -4.54296875 2.37109375 C-3.22296875 3.03109375 -1.90296875 3.69109375 -0.54296875 4.37109375 C-5.81612208 3.92580525 -10.56067099 3.28736212 -15.54296875 1.37109375 C-15.54296875 4.67109375 -15.54296875 7.97109375 -15.54296875 11.37109375 C-17.19296875 11.70109375 -18.84296875 12.03109375 -20.54296875 12.37109375 C-20.54296875 9.07109375 -20.54296875 5.77109375 -20.54296875 2.37109375 C-21.9403125 2.80421875 -23.33765625 3.23734375 -24.77734375 3.68359375 C-26.61579619 4.24638531 -28.45434281 4.80886929 -30.29296875 5.37109375 C-31.21335938 5.65726563 -32.13375 5.9434375 -33.08203125 6.23828125 C-33.97148437 6.50898438 -34.8609375 6.7796875 -35.77734375 7.05859375 C-37.00275879 7.43564453 -37.00275879 7.43564453 -38.25292969 7.8203125 C-40.54296875 8.37109375 -40.54296875 8.37109375 -44.54296875 8.37109375 C-44.54296875 9.03109375 -44.54296875 9.69109375 -44.54296875 10.37109375 C-43.88296875 10.70109375 -43.22296875 11.03109375 -42.54296875 11.37109375 C-45.51296875 10.87609375 -45.51296875 10.87609375 -48.54296875 10.37109375 C-48.54296875 9.71109375 -48.54296875 9.05109375 -48.54296875 8.37109375 C-47.55296875 8.04109375 -46.56296875 7.71109375 -45.54296875 7.37109375 C-47.19296875 7.04109375 -48.84296875 6.71109375 -50.54296875 6.37109375 C-47.93475537 4.63228483 -46.5088452 3.950351 -43.59375 3.1875 C-42.82740234 2.98189453 -42.06105469 2.77628906 -41.27148438 2.56445312 C-40.47419922 2.35626953 -39.67691406 2.14808594 -38.85546875 1.93359375 C-34.22227571 0.7167568 -29.6772261 -0.5239752 -25.20703125 -2.2578125 C-16.28092782 -5.59796421 -8.67049694 -2.72002495 0 0 Z " fill="#9A91AC" transform="translate(266.54296875,176.62890625)"/>
<path d="M0 0 C0.99 0.33 1.98 0.66 3 1 C2.67 9.91 2.34 18.82 2 28 C5.96 28.99 5.96 28.99 10 30 C11.80525697 30.59252013 13.60125463 31.21463315 15.3828125 31.875 C16.32253906 32.22046875 17.26226562 32.5659375 18.23046875 32.921875 C19.66326172 33.45554687 19.66326172 33.45554687 21.125 34 C23.04401256 34.70903275 24.96327648 35.41738562 26.8828125 36.125 C27.77000977 36.45242187 28.65720703 36.77984375 29.57128906 37.1171875 C32.36374997 38.13221953 35.17284179 39.08617108 38 40 C38.33 38.68 38.66 37.36 39 36 C39 37.98 39 39.96 39 42 C38.01 42.495 38.01 42.495 37 43 C37.98267859 44.20561184 37.98267859 44.20561184 39.84765625 44.09765625 C41.8984375 44.06510417 43.94921875 44.03255208 46 44 C44 46 44 46 41.1875 46.4375 C36.3578184 46.28874184 32.17113692 44.30120393 27.75 42.5 C22.90131078 40.52499512 17.94980572 38.84689937 13.00048828 37.14404297 C8.57615216 35.60619461 4.28587114 33.89115463 0 32 C0.99 31.67 1.98 31.34 3 31 C3 30.34 3 29.68 3 29 C2.01 28.67 1.02 28.34 0 28 C0 18.76 0 9.52 0 0 Z " fill="#D5D0E0" transform="translate(211,208)"/>
<path d="M0 0 C-2.64738916 1.4606285 -3.89448334 2 -7 2 C-7 12.23 -7 22.46 -7 33 C-19.8820598 38.85548173 -19.8820598 38.85548173 -26.3125 41.25 C-26.97572266 41.50523437 -27.63894531 41.76046875 -28.32226562 42.0234375 C-32.19693774 43.47691766 -35.89659128 44.46560258 -40 45 C-39.01 44.505 -39.01 44.505 -38 44 C-38 43.34 -38 42.68 -38 42 C-41.465 42.495 -41.465 42.495 -45 43 C-42.39890932 40.39890932 -39.55107757 39.75028325 -36.125 38.6875 C-30.10116194 36.75929016 -24.2890209 34.55094136 -18.48828125 32.015625 C-16 31 -16 31 -12 30 C-12.495 17.625 -12.495 17.625 -13 5 C-16.465 6.485 -16.465 6.485 -20 8 C-22.4375 7.6875 -22.4375 7.6875 -24 7 C-22.39850114 6.32694982 -20.79368971 5.66177773 -19.1875 5 C-18.29417969 4.62875 -17.40085937 4.2575 -16.48046875 3.875 C-14 3 -14 3 -11 3 C-11 12.57 -11 22.14 -11 32 C-10.01 32 -9.02 32 -8 32 C-8 21.77 -8 11.54 -8 1 C-3 -1 -3 -1 0 0 Z " fill="#9990AC" transform="translate(302,205)"/>
<path d="M0 0 C4.34464536 0.60825035 8.67551867 1.26167392 13 2 C12.67 2.99 12.34 3.98 12 5 C13.65 4.67 15.3 4.34 17 4 C18.98 6.31 20.96 8.62 23 11 C19 9 19 9 17 7 C10.51647348 7.62249686 4.35929422 9.9618265 -1.8125 11.9375 C-2.96943359 12.29779297 -4.12636719 12.65808594 -5.31835938 13.02929688 C-6.41599609 13.37927734 -7.51363281 13.72925781 -8.64453125 14.08984375 C-9.64846924 14.40816162 -10.65240723 14.72647949 -11.68676758 15.05444336 C-14.15870473 15.76847778 -14.15870473 15.76847778 -15 18 C-14.34 18 -13.68 18 -13 18 C-13 18.66 -13 19.32 -13 20 C-12.34 20 -11.68 20 -11 20 C-8.875 21.875 -8.875 21.875 -7 24 C-7 24.66 -7 25.32 -7 26 C-6.01 26.33 -5.02 26.66 -4 27 C-4.33 27.66 -4.66 28.32 -5 29 C-5.99 28.34 -6.98 27.68 -8 27 C-8 27.99 -8 28.98 -8 30 C-8.66 30 -9.32 30 -10 30 C-10 29.34 -10 28.68 -10 28 C-10.66 28 -11.32 28 -12 28 C-12 27.34 -12 26.68 -12 26 C-12.66 26 -13.32 26 -14 26 C-14 25.34 -14 24.68 -14 24 C-14.66 24 -15.32 24 -16 24 C-16.66 22.68 -17.32 21.36 -18 20 C-17.34 20 -16.68 20 -16 20 C-16.33 18.35 -16.66 16.7 -17 15 C-15.35 14.34 -13.7 13.68 -12 13 C-14.31 13 -16.62 13 -19 13 C-16.67888351 10.67888351 -15.14410036 10.26074333 -12.02734375 9.30859375 C-11.04572266 9.00373047 -10.06410156 8.69886719 -9.05273438 8.38476562 C-8.02470703 8.07216797 -6.99667969 7.75957031 -5.9375 7.4375 C-3.90411856 6.81389582 -1.87151972 6.18773207 0.16015625 5.55859375 C1.51572632 5.14565063 1.51572632 5.14565063 2.89868164 4.72436523 C4.96089028 4.18512849 4.96089028 4.18512849 6 3 C4.02 2.34 2.04 1.68 0 1 C0 0.67 0 0.34 0 0 Z " fill="#B0A6BF" transform="translate(273,183)"/>
<path d="M0 0 C4.60416626 0.60875755 8.56483324 1.84722956 12.875 3.5625 C14.02742187 4.01753906 15.17984375 4.47257813 16.3671875 4.94140625 C17.67042969 5.46541016 17.67042969 5.46541016 19 6 C19 6.66 19 7.32 19 8 C16.03 7.34 13.06 6.68 10 6 C10.33 15.24 10.66 24.48 11 34 C11.66 34.33 12.32 34.66 13 35 C13 35.66 13 36.32 13 37 C11.00045254 37.04254356 8.99958364 37.04080783 7 37 C6 36 6 36 5.88647461 33.04077148 C5.89171143 31.74727783 5.89694824 30.45378418 5.90234375 29.12109375 C5.9037587 28.4344313 5.90517365 27.74776886 5.90663147 27.04029846 C5.91224521 24.83932199 5.92479993 22.63844591 5.9375 20.4375 C5.94251324 18.94856917 5.94707645 17.45963676 5.95117188 15.97070312 C5.96221907 12.31376925 5.97949287 8.65689442 6 5 C5.34 5 4.68 5 4 5 C4 4.34 4 3.68 4 3 C2.68 2.34 1.36 1.68 0 1 C0 0.67 0 0.34 0 0 Z " fill="#7A708D" transform="translate(201,202)"/>
<path d="M0 0 C0.99 0 1.98 0 3 0 C3.391875 0.94875 3.78375 1.8975 4.1875 2.875 C6.19793856 6.34127338 7.22699642 6.9802693 11 8 C11 9.32 11 10.64 11 12 C10.05125 12.20625 9.1025 12.4125 8.125 12.625 C4.70833333 13.70833333 4.70833333 13.70833333 3.625 17.125 C3.41875 18.07375 3.2125 19.0225 3 20 C1.125 19.8125 1.125 19.8125 -1 19 C-1.28875 18.195625 -1.5775 17.39125 -1.875 16.5625 C-2.79704705 13.66336372 -2.79704705 13.66336372 -6.125 12.6875 C-7.548125 12.3471875 -7.548125 12.3471875 -9 12 C-8.67 10.68 -8.34 9.36 -8 8 C-5.69 7.34 -3.38 6.68 -1 6 C-0.67 4.02 -0.34 2.04 0 0 Z " fill="#CAA8DE" transform="translate(247,139)"/>
<path d="M0 0 C-1.32 0.33 -2.64 0.66 -4 1 C-4 1.66 -4 2.32 -4 3 C-2.68 3.66 -1.36 4.32 0 5 C-0.73734375 5.2475 -1.4746875 5.495 -2.234375 5.75 C-5.26270589 7.11873712 -6.95505271 8.6174593 -9.25 11 C-9.93578125 11.70125 -10.6215625 12.4025 -11.328125 13.125 C-13.06078209 14.90367296 -13.06078209 14.90367296 -14 17 C-13.113125 17.12375 -12.22625 17.2475 -11.3125 17.375 C-8.29612498 17.94412736 -5.79673946 18.76614436 -3 20 C-6.67735605 21.22578535 -7.55066523 20.46596728 -11 19 C-11.99 19 -12.98 19 -14 19 C-13.01 19.99 -12.02 20.98 -11 22 C-12.46109063 21.74445946 -13.91888096 21.46999628 -15.375 21.1875 C-16.18710938 21.03667969 -16.99921875 20.88585937 -17.8359375 20.73046875 C-20 20 -20 20 -22 17 C-20.625 15 -20.625 15 -19 13 C-18.34 13 -17.68 13 -17 13 C-16.76152344 12.43667969 -16.52304688 11.87335938 -16.27734375 11.29296875 C-14.72208229 8.50110796 -12.82795576 6.56307592 -10.5625 4.3125 C-9.78003906 3.52488281 -8.99757812 2.73726562 -8.19140625 1.92578125 C-5.14639747 -0.75013555 -3.89601377 -1.29867126 0 0 Z " fill="#C2BBCE" transform="translate(216,184)"/>
<path d="M0 0 C-2.64738916 1.4606285 -3.89448334 2 -7 2 C-7 12.23 -7 22.46 -7 33 C-13 36 -13 36 -15.375 35.6875 C-15.91125 35.460625 -16.4475 35.23375 -17 35 C-15.515 34.505 -15.515 34.505 -14 34 C-16.31 34 -18.62 34 -21 34 C-19 32 -19 32 -12 30 C-12.33 21.75 -12.66 13.5 -13 5 C-16.465 6.485 -16.465 6.485 -20 8 C-22.4375 7.6875 -22.4375 7.6875 -24 7 C-22.39850114 6.32694982 -20.79368971 5.66177773 -19.1875 5 C-18.29417969 4.62875 -17.40085937 4.2575 -16.48046875 3.875 C-14 3 -14 3 -11 3 C-11 12.57 -11 22.14 -11 32 C-10.01 32 -9.02 32 -8 32 C-8 21.77 -8 11.54 -8 1 C-3 -1 -3 -1 0 0 Z " fill="#ECE6F4" transform="translate(302,205)"/>
<path d="M0 0 C2.96175123 0.61277612 4.38058783 1.25372522 7 3 C7.36076355 5.10073853 7.36076355 5.10073853 7.34057617 7.72509766 C7.34034958 8.70596344 7.34012299 9.68682922 7.33988953 10.69741821 C7.32440567 11.75891083 7.30892181 12.82040344 7.29296875 13.9140625 C7.28872391 14.99883881 7.28447906 16.08361511 7.28010559 17.20126343 C7.263273 20.67609167 7.22561189 24.15034618 7.1875 27.625 C7.17245911 29.97655414 7.15876967 32.32811735 7.14648438 34.6796875 C7.11335454 40.45332173 7.06310982 46.22661989 7 52 C6.67 52 6.34 52 6 52 C5.19332658 37.32111832 4.86034429 22.70037524 5 8 C4.34 8 3.68 8 3 8 C2.01 9.485 2.01 9.485 1 11 C0.34 11 -0.32 11 -1 11 C-1 10.01 -1 9.02 -1 8 C-1.99 8.33 -2.98 8.66 -4 9 C-4 8.34 -4 7.68 -4 7 C-3.34 7 -2.68 7 -2 7 C-2 6.34 -2 5.68 -2 5 C-1.34 5 -0.68 5 0 5 C0 4.34 0 3.68 0 3 C0.66 3 1.32 3 2 3 C2 2.34 2 1.68 2 1 C1.34 0.67 0.68 0.34 0 0 Z " fill="#998FAD" transform="translate(244,198)"/>
<path d="M0 0 C0.99 0 1.98 0 3 0 C4.0064275 1.66279327 5.00585407 3.32983484 6 5 C8.06700655 6.32793606 8.06700655 6.32793606 10 7 C8 10 8 10 5 11 C3.30117552 13.49759982 3.30117552 13.49759982 2 16 C1.34 15.67 0.68 15.34 0 15 C-0.103125 14.360625 -0.20625 13.72125 -0.3125 13.0625 C-0.539375 12.381875 -0.76625 11.70125 -1 11 C-3.49034386 9.70339566 -3.49034386 9.70339566 -6 9 C-5.67 8.01 -5.34 7.02 -5 6 C-4.34 5.690625 -3.68 5.38125 -3 5.0625 C-0.79394438 4.17972859 -0.79394438 4.17972859 -0.25 1.875 C-0.1675 1.25625 -0.085 0.6375 0 0 Z " fill="#BCA0D2" transform="translate(270,141)"/>
<path d="M0 0 C-3.48720616 4.3590077 -6.72760915 4.94552183 -12 6 C-12 6.66 -12 7.32 -12 8 C-18.37952339 11.06707855 -18.37952339 11.06707855 -21.3125 10.75 C-22.55579711 10.19742351 -23.78307651 9.60846174 -25 9 C-25 7.35 -25 5.7 -25 4 C-24.21625 4.2475 -23.4325 4.495 -22.625 4.75 C-17.42263067 5.10878409 -13.67595071 3.09713796 -9 1 C-3.62268347 -1.34173462 -3.62268347 -1.34173462 0 0 Z " fill="#776D8B" transform="translate(290,206)"/>
<path d="M0 0 C0.66 0 1.32 0 2 0 C2.2475 0.969375 2.495 1.93875 2.75 2.9375 C3.36875 4.4534375 3.36875 4.4534375 4 6 C6.03243548 6.96877057 6.03243548 6.96877057 8 7 C7.67 7.99 7.34 8.98 7 10 C6.01 10 5.02 10 4 10 C3.34 11.98 2.68 13.96 2 16 C1.01 15.67 0.02 15.34 -1 15 C-1.33 13.35 -1.66 11.7 -2 10 C-3.32 10 -4.64 10 -6 10 C-6 8.68 -6 7.36 -6 6 C-4.68 6 -3.36 6 -2 6 C-1.34 4.02 -0.68 2.04 0 0 Z " fill="#93C1C6" transform="translate(280,158)"/>
<path d="M0 0 C1.32 0 2.64 0 4 0 C4 10.56 4 21.12 4 32 C3.01 32 2.02 32 1 32 C1 22.43 1 12.86 1 3 C0.01 2.67 -0.98 2.34 -2 2 C-1.34 1.34 -0.68 0.68 0 0 Z " fill="#473B62" transform="translate(290,205)"/>
<path d="M0 0 C11.54226486 1.02154328 26.84519571 2.80109295 35.3125 11.375 C36.98828125 13.4609375 36.98828125 13.4609375 38 15 C37.01 15.33 36.02 15.66 35 16 C34.62488281 15.566875 34.24976563 15.13375 33.86328125 14.6875 C30.64255667 11.01436376 30.64255667 11.01436376 26.125 9.625 C25.42375 9.74875 24.7225 9.8725 24 10 C24 9.34 24 8.68 24 8 C18.93712557 6.61921606 14.11241829 5.69252351 8.8828125 5.24609375 C7 5 7 5 5 4 C5 3.34 5 2.68 5 2 C3.35 1.67 1.7 1.34 0 1 C0 0.67 0 0.34 0 0 Z " fill="#2E2049" transform="translate(261,178)"/>
<path d="M0 0 C0.99 0.33 1.98 0.66 3 1 C3.33 1.99 3.66 2.98 4 4 C6.00016466 5.20882096 6.00016466 5.20882096 8 6 C7.67 6.99 7.34 7.98 7 9 C4.9375 9.6875 4.9375 9.6875 3 10 C2.67 11.65 2.34 13.3 2 15 C1.01 14.67 0.02 14.34 -1 14 C-1 12.68 -1 11.36 -1 10 C-2.65 9.67 -4.3 9.34 -6 9 C-6 8.01 -6 7.02 -6 6 C-5.38125 5.7525 -4.7625 5.505 -4.125 5.25 C-1.64931313 3.79371361 -1.04874998 2.62187494 0 0 Z " fill="#D1BAE0" transform="translate(210,136)"/>
<path d="M0 0 C-0.99 0.33 -1.98 0.66 -3 1 C-0.03 1 2.94 1 6 1 C2.84605348 3.10263102 0.17536296 4.01776618 -3.4375 5.125 C-4.57058594 5.47820312 -5.70367187 5.83140625 -6.87109375 6.1953125 C-10 7 -10 7 -14 7 C-14 7.66 -14 8.32 -14 9 C-13.34 9.33 -12.68 9.66 -12 10 C-14.97 9.505 -14.97 9.505 -18 9 C-18 8.34 -18 7.68 -18 7 C-17.01 6.67 -16.02 6.34 -15 6 C-16.65 5.67 -18.3 5.34 -20 5 C-16.85418354 2.90278902 -14.1591082 1.94332914 -10.5625 0.8125 C-9.42941406 0.44769531 -8.29632813 0.08289063 -7.12890625 -0.29296875 C-4.1660003 -0.96248932 -2.77995035 -1.07236414 0 0 Z " fill="#B8AEC8" transform="translate(236,178)"/>
<path d="M0 0 C4.23223534 -0.14639808 7.70561915 0.27614531 11.765625 1.4609375 C12.82007813 1.76773438 13.87453125 2.07453125 14.9609375 2.390625 C16.04632813 2.71546875 17.13171875 3.0403125 18.25 3.375 C19.35085938 3.69210938 20.45171875 4.00921875 21.5859375 4.3359375 C29.74011868 6.74011868 29.74011868 6.74011868 32 9 C25.5833822 7.96309408 19.45276187 6.66798979 13.2890625 4.5859375 C10.78026898 3.94375486 8.5791375 3.89975084 6 4 C7.32 4.66 8.64 5.32 10 6 C4.72684667 5.5547115 -0.01770224 4.91626837 -5 3 C-5 6.3 -5 9.6 -5 13 C-5.33 13 -5.66 13 -6 13 C-6 9.37 -6 5.74 -6 2 C-4.02 1.67 -2.04 1.34 0 1 C0 0.67 0 0.34 0 0 Z " fill="#C3BBCF" transform="translate(256,175)"/>
<path d="M0 0 C-0.33 0.66 -0.66 1.32 -1 2 C-1.99 2 -2.98 2 -4 2 C-4 2.66 -4 3.32 -4 4 C-3.30132812 4.06058594 -2.60265625 4.12117187 -1.8828125 4.18359375 C-0.97273437 4.26738281 -0.06265625 4.35117188 0.875 4.4375 C1.77992188 4.51871094 2.68484375 4.59992188 3.6171875 4.68359375 C6 5 6 5 8 6 C8 6.66 8 7.32 8 8 C8.99 8.33 9.98 8.66 11 9 C11 9.33 11 9.66 11 10 C5.27601207 9.25339288 -0.34853777 8.17122859 -6 7 C-6 6.34 -6 5.68 -6 5 C-7.32 4.67 -8.64 4.34 -10 4 C-10 3.34 -10 2.68 -10 2 C-6.5980513 -0.09350689 -3.94727588 -0.17942163 0 0 Z " fill="#6D6282" transform="translate(222,183)"/>
<path d="M0 0 C5.52675903 0.63854985 10.62367351 1.93693354 15.9375 3.5625 C16.71673828 3.79646484 17.49597656 4.03042969 18.29882812 4.27148438 C20.20057187 4.84317421 22.10048226 5.42095691 24 6 C24 6.33 24 6.66 24 7 C18.72684667 6.5547115 13.98229776 5.91626837 9 4 C9 4.66 9 5.32 9 6 C10.32 6.33 11.64 6.66 13 7 C9.63945043 8.12018319 8.98276729 7.90181274 5.76953125 6.78515625 C4.96708984 6.51123047 4.16464844 6.23730469 3.33789062 5.95507812 C2.50451172 5.66052734 1.67113281 5.36597656 0.8125 5.0625 C-0.03248047 4.77181641 -0.87746094 4.48113281 -1.74804688 4.18164062 C-3.83495229 3.46242463 -5.91859994 2.7349657 -8 2 C-4.34811918 0.92825237 -1.73567172 1.23588533 2 2 C1.34 1.34 0.68 0.68 0 0 Z " fill="#C8C1D4" transform="translate(230,190)"/>
<path d="M0 0 C1.19625 0.350625 2.3925 0.70125 3.625 1.0625 C10.09394337 2.54259424 16.46415824 1.68798334 23 1 C22.67 1.66 22.34 2.32 22 3 C19.4375 3.625 19.4375 3.625 17 4 C17.33 5.65 17.66 7.3 18 9 C14.7 8.34 11.4 7.68 8 7 C8 6.34 8 5.68 8 5 C5.36 4.01 2.72 3.02 0 2 C0 1.34 0 0.68 0 0 Z " fill="#301F4F" transform="translate(239,194)"/>
<path d="M0 0 C0.66 0.33 1.32 0.66 2 1 C2.33 1.99 2.66 2.98 3 4 C3.99 4.33 4.98 4.66 6 5 C6 8 6 8 3.5 10.6875 C2.675 11.450625 1.85 12.21375 1 13 C0.01 12.67 -0.98 12.34 -2 12 C-2.33 11.01 -2.66 10.02 -3 9 C-3.99 8.67 -4.98 8.34 -6 8 C-5.67 7.01 -5.34 6.02 -5 5 C-4.01 5 -3.02 5 -2 5 C-1.855625 4.360625 -1.71125 3.72125 -1.5625 3.0625 C-1 1 -1 1 0 0 Z " fill="#87BABB" transform="translate(233,125)"/>
<path d="M0 0 C0.99 0 1.98 0 3 0 C3 0.66 3 1.32 3 2 C3.66 2 4.32 2 5 2 C7.125 3.875 7.125 3.875 9 6 C9 6.66 9 7.32 9 8 C9.99 8.33 10.98 8.66 12 9 C11.67 9.66 11.34 10.32 11 11 C10.01 10.34 9.02 9.68 8 9 C8 9.99 8 10.98 8 12 C7.34 12 6.68 12 6 12 C6 11.34 6 10.68 6 10 C5.34 10 4.68 10 4 10 C4 9.34 4 8.68 4 8 C3.34 8 2.68 8 2 8 C2 7.34 2 6.68 2 6 C1.34 6 0.68 6 0 6 C-0.66 4.68 -1.32 3.36 -2 2 C-1.34 2 -0.68 2 0 2 C0 1.34 0 0.68 0 0 Z " fill="#9E96B0" transform="translate(257,201)"/>
<path d="M0 0 C0.33 0 0.66 0 1 0 C1 1.98 1 3.96 1 6 C0.01 6.495 0.01 6.495 -1 7 C-0.01732141 8.20561184 -0.01732141 8.20561184 1.84765625 8.09765625 C3.8984375 8.06510417 5.94921875 8.03255208 8 8 C6 10 6 10 3.1875 10.4375 C-2.84261218 10.32202977 -8.53294447 7.30191812 -14 5 C-11 4 -11 4 -8 5 C-8.33 4.01 -8.66 3.02 -9 2 C-4.545 2.99 -4.545 2.99 0 4 C0 2.68 0 1.36 0 0 Z " fill="#B2ACC1" transform="translate(249,244)"/>
<path d="M0 0 C0.66 0 1.32 0 2 0 C2.33 1.32 2.66 2.64 3 4 C3.99 4 4.98 4 6 4 C6 7 6 7 4 9.1875 C3.01 10.0846875 3.01 10.0846875 2 11 C-1.00609963 9.99796679 -2.06176821 9.39971554 -4 7 C-4 6.01 -4 5.02 -4 4 C-3.01 4 -2.02 4 -1 4 C-0.67 2.68 -0.34 1.36 0 0 Z " fill="#C2A8D2" transform="translate(211,156)"/>
<path d="M0 0 C5.38493928 0.30970894 7.82467404 3.35430107 11.3125 7.0625 C12.13717773 7.91424805 12.13717773 7.91424805 12.97851562 8.78320312 C14.32827365 10.17990925 15.66541525 11.58878837 17 13 C16.01 13.66 15.02 14.32 14 15 C14.33 15.66 14.66 16.32 15 17 C14.01 17 13.02 17 12 17 C12 16.01 12 15.02 12 14 C11.34 14 10.68 14 10 14 C10 13.34 10 12.68 10 12 C9.34 12 8.68 12 8 12 C8 11.34 8 10.68 8 10 C8.66 9.67 9.32 9.34 10 9 C8.89902432 7.87187697 7.79408444 6.74762189 6.6875 5.625 C6.07261719 4.99851563 5.45773437 4.37203125 4.82421875 3.7265625 C2.91187472 1.81913393 2.91187472 1.81913393 0 0 Z " fill="#B2A8C2" transform="translate(288,184)"/>
<path d="M0 0 C0.66 0.66 1.32 1.32 2 2 C-5.51333004 4.8917284 -11.92386148 6.64323227 -20 6 C-17.55200137 3.55200137 -15.52399884 2.97447722 -12.25 1.875 C-11.22390625 1.52179688 -10.1978125 1.16859375 -9.140625 0.8046875 C-5.91519903 -0.02172761 -3.31297088 -0.29343456 0 0 Z " fill="#635776" transform="translate(274,190)"/>
<path d="M0 0 C1.134375 0.020625 2.26875 0.04125 3.4375 0.0625 C4.8467283 2.6930595 5.96024325 5.10350817 6.4375 8.0625 C6.1075 9.0525 5.7775 10.0425 5.4375 11.0625 C4.4475 10.7325 3.4575 10.4025 2.4375 10.0625 C1.77083333 8.39583333 1.10416667 6.72916667 0.4375 5.0625 C-0.5525 4.7325 -1.5425 4.4025 -2.5625 4.0625 C-2.5625 3.4025 -2.5625 2.7425 -2.5625 2.0625 C-3.2225 1.7325 -3.8825 1.4025 -4.5625 1.0625 C-3.5625 0.0625 -3.5625 0.0625 0 0 Z " fill="#A87EC3" transform="translate(243.5625,147.9375)"/>
<path d="M0 0 C6.18160604 0.53753096 11.326858 2.54582388 17 5 C17 5.66 17 6.32 17 7 C15.41590006 6.88512252 13.83271037 6.75765492 12.25 6.625 C11.36828125 6.55539063 10.4865625 6.48578125 9.578125 6.4140625 C7.00933618 6.00149945 5.24158985 5.28839043 3 4 C3 3.34 3 2.68 3 2 C2.01 2 1.02 2 0 2 C0 1.34 0 0.68 0 0 Z " fill="#776F8D" transform="translate(224,242)"/>
<path d="M0 0 C0.56203125 0.33773437 1.1240625 0.67546875 1.703125 1.0234375 C4.39726644 2.1689058 5.88038233 2.0470026 8.75 1.625 C9.94882812 1.45871094 9.94882812 1.45871094 11.171875 1.2890625 C11.77515625 1.19367188 12.3784375 1.09828125 13 1 C13 1.99 13 2.98 13 4 C6.62047661 7.06707855 6.62047661 7.06707855 3.6875 6.75 C2.44420289 6.19742351 1.21692349 5.60846174 0 5 C0 3.35 0 1.7 0 0 Z " fill="#736B85" transform="translate(265,210)"/>
<path d="M0 0 C0.66 0 1.32 0 2 0 C3.625 2 3.625 2 5 4 C4 6 3 8 2 10 C-0.62187494 8.95125002 -1.79371361 8.35068687 -3.25 5.875 C-3.4975 5.25625 -3.745 4.6375 -4 4 C-3.34 4 -2.68 4 -2 4 C-1.34 2.68 -0.68 1.36 0 0 Z " fill="#D5C2E2" transform="translate(246,115)"/>
<path d="M0 0 C0 0.99 0 1.98 0 3 C1.32 3.33 2.64 3.66 4 4 C3.01 5.485 3.01 5.485 2 7 C1.34 7 0.68 7 0 7 C0 7.66 0 8.32 0 9 C-3 9 -3 9 -4.6875 7.6875 C-6 6 -6 6 -6 3 C-3.9398797 0.3512739 -3.48011144 0 0 0 Z " fill="#D2B9DD" transform="translate(265,161)"/>
<path d="M0 0 C2.96175123 0.61277612 4.38058783 1.25372522 7 3 C6 6 6 6 3 8 C2.01 8 1.02 8 0 8 C0 7.34 0 6.68 0 6 C-0.99 5.67 -1.98 5.34 -3 5 C-2.67 4.01 -2.34 3.02 -2 2 C-1.34 2 -0.68 2 0 2 C0 1.34 0 0.68 0 0 Z " fill="#EFE4F4" transform="translate(266,123)"/>
<path d="M0 0 C2.125 1.875 2.125 1.875 4 4 C4 6 4 6 2 8.125 C1.34 8.74375 0.68 9.3625 0 10 C-2.99693138 9.00102287 -4.02709413 8.34869747 -6 6 C-6 4 -6 4 -4.125 1.875 C-2 0 -2 0 0 0 Z " fill="#CFBBDB" transform="translate(241,160)"/>
<path d="M0 0 C4.72502701 0.63242669 8.90570197 1.91813563 13.375 3.5625 C14.01566406 3.79646484 14.65632812 4.03042969 15.31640625 4.27148438 C16.8793161 4.84299619 18.43990727 5.42084229 20 6 C15.74938644 7.41687119 13.28148375 6.19320039 9 5 C9 5.66 9 6.32 9 7 C9.99 7.33 10.98 7.66 12 8 C8.1936543 7.32829194 4.64793184 6.27253436 1 5 C4.75 3.875 4.75 3.875 7 5 C7 4.34 7 3.68 7 3 C4.69 2.34 2.38 1.68 0 1 C0 0.67 0 0.34 0 0 Z " fill="#DAD3E4" transform="translate(213,205)"/>
<path d="M0 0 C-1.50053894 3.11650396 -3.06181958 6.13149298 -5 9 C-5.99 9.33 -6.98 9.66 -8 10 C-8.33 10.99 -8.66 11.98 -9 13 C-10.32 13 -11.64 13 -13 13 C-11.46781315 9.36938333 -9.2816856 7.0136227 -6.5 4.25 C-5.7059375 3.45078125 -4.911875 2.6515625 -4.09375 1.828125 C-2 0 -2 0 0 0 Z " fill="#4C4261" transform="translate(209,189)"/>
<path d="M0 0 C0.99 0.33 1.98 0.66 3 1 C3 1.66 3 2.32 3 3 C3.66 3 4.32 3 5 3 C5 3.99 5 4.98 5 6 C4.34 6 3.68 6 3 6 C2.67 6.99 2.34 7.98 2 9 C1.01 8.67 0.02 8.34 -1 8 C-1 7.34 -1 6.68 -1 6 C-1.66 6 -2.32 6 -3 6 C-3 5.01 -3 4.02 -3 3 C-2.34 3 -1.68 3 -1 3 C-0.67 2.01 -0.34 1.02 0 0 Z " fill="#DDCAE7" transform="translate(223,168)"/>
<path d="M0 0 C2.475 0.99 2.475 0.99 5 2 C5 3.32 5 4.64 5 6 C3.35 6.66 1.7 7.32 0 8 C-0.99 7.01 -1.98 6.02 -3 5 C-1.125 1.125 -1.125 1.125 0 0 Z " fill="#D1BDDF" transform="translate(226,149)"/>
<path d="M0 0 C-0.99 0.33 -1.98 0.66 -3 1 C-0.03 1 2.94 1 6 1 C1.49667324 4.00221784 -2.57767579 5.31896025 -8 5 C-7.01 4.67 -6.02 4.34 -5 4 C-5 3.34 -5 2.68 -5 2 C-6.051875 2.33 -7.10375 2.66 -8.1875 3 C-11.38873357 3.83966782 -13.7411008 4.19750904 -17 4 C-14.22246623 2.55441992 -11.45460092 1.34964587 -8.5 0.3125 C-7.7471875 0.04050781 -6.994375 -0.23148438 -6.21875 -0.51171875 C-3.76402507 -1.0519311 -2.35576662 -0.79774824 0 0 Z " fill="#C8C0D3" transform="translate(236,178)"/>
<path d="M0 0 C1.32 0 2.64 0 4 0 C4.99 0.33 5.98 0.66 7 1 C5.5903653 1.70180531 4.17192359 2.38593958 2.75 3.0625 C1.96109375 3.44535156 1.1721875 3.82820312 0.359375 4.22265625 C-2.25993522 5.08564091 -3.44855176 4.93045933 -6 4 C-5.34 4 -4.68 4 -4 4 C-4 3.34 -4 2.68 -4 2 C-6.31 2.33 -8.62 2.66 -11 3 C-7.58250857 -0.41749143 -4.59478775 -1.4821896 0 0 Z " fill="#C0B8CC" transform="translate(268,245)"/>
<path d="M0 0 C0.99 0 1.98 0 3 0 C4.125 2.3125 4.125 2.3125 5 5 C4.01 6.485 4.01 6.485 3 8 C0 8 0 8 -1.6875 6.625 C-3 5 -3 5 -3 3 C-2.34 3 -1.68 3 -1 3 C-0.67 2.01 -0.34 1.02 0 0 Z " fill="#D3C1DE" transform="translate(294,174)"/>
<path d="M0 0 C6.75 0.875 6.75 0.875 9 2 C9 2.66 9 3.32 9 4 C5.17907588 5.37553268 1.91765889 4.81309902 -2 4 C-2.33 3.34 -2.66 2.68 -3 2 C-2.01 2 -1.02 2 0 2 C0 1.34 0 0.68 0 0 Z " fill="#837A96" transform="translate(214,237)"/>
<path d="M0 0 C0.99 0 1.98 0 3 0 C3.99 1.98 4.98 3.96 6 6 C5.01 6 4.02 6 3 6 C3 6.99 3 7.98 3 9 C2.34 9 1.68 9 1 9 C1 8.01 1 7.02 1 6 C-0.98 6.33 -2.96 6.66 -5 7 C-4.360625 6.5875 -3.72125 6.175 -3.0625 5.75 C-0.79009069 3.82189513 -0.39803561 2.88575819 0 0 Z " fill="#D0B1E0" transform="translate(270,141)"/>
<path d="M0 0 C-0.33 0.66 -0.66 1.32 -1 2 C-1.99 2 -2.98 2 -4 2 C-4 2.66 -4 3.32 -4 4 C-3.34 4 -2.68 4 -2 4 C-2 4.66 -2 5.32 -2 6 C-7.75 5.125 -7.75 5.125 -10 4 C-10 3.34 -10 2.68 -10 2 C-6.5980513 -0.09350689 -3.94727588 -0.17942163 0 0 Z " fill="#31234F" transform="translate(222,183)"/>
<path d="M0 0 C1.41750563 0.11509661 2.83401169 0.24253658 4.25 0.375 C5.03890625 0.44460937 5.8278125 0.51421875 6.640625 0.5859375 C9.085877 1.01507113 10.84836903 1.78600638 13 3 C13 3.66 13 4.32 13 5 C7.25 5.125 7.25 5.125 5 4 C5 3.34 5 2.68 5 2 C3.35 1.67 1.7 1.34 0 1 C0 0.67 0 0.34 0 0 Z " fill="#594F76" transform="translate(261,178)"/>
<path d="M0 0 C-1.45658127 2.91316254 -3.36160014 3.09207774 -6.375 4.1875 C-7.35210937 4.55230469 -8.32921875 4.91710937 -9.3359375 5.29296875 C-12 6 -12 6 -15 5 C-11.11932678 1.11932678 -5.4348024 -0.50951273 0 0 Z " fill="#372A51" transform="translate(289,238)"/>
<path d="M0 0 C0 1.65 0 3.3 0 5 C-0.66 5 -1.32 5 -2 5 C-2 5.66 -2 6.32 -2 7 C-3.32 7.33 -4.64 7.66 -6 8 C-6 5.33579484 -5.90837763 3.47739354 -5 1 C-2 0 -2 0 0 0 Z " fill="#756A86" transform="translate(243,206)"/>
<path d="M0 0 C0 0.33 0 0.66 0 1 C-2.64 1 -5.28 1 -8 1 C-8 4.3 -8 7.6 -8 11 C-8.33 11 -8.66 11 -9 11 C-9 7.04 -9 3.08 -9 -1 C-5.79937313 -2.60031344 -3.27728194 -1.03173691 0 0 Z " fill="#2F214E" transform="translate(257,176)"/>
<path d="M0 0 C0 0.66 0 1.32 0 2 C-0.66 2 -1.32 2 -2 2 C-2 2.66 -2 3.32 -2 4 C-3.98 4.33 -5.96 4.66 -8 5 C-8.33 4.01 -8.66 3.02 -9 2 C-5.62902617 0.50178941 -3.79557881 0 0 0 Z " fill="#655979" transform="translate(264,247)"/>
<path d="M0 0 C0.99 0 1.98 0 3 0 C3 0.66 3 1.32 3 2 C3.66 2 4.32 2 5 2 C5 2.99 5 3.98 5 5 C3.35 5.33 1.7 5.66 0 6 C-0.66 4.68 -1.32 3.36 -2 2 C-1.34 2 -0.68 2 0 2 C0 1.34 0 0.68 0 0 Z " fill="#8C839C" transform="translate(257,201)"/>
<path d="M0 0 C0.33 0.99 0.66 1.98 1 3 C-3.40914783 4.10228696 -7.48382401 4.07654536 -12 4 C-8.54145481 0.54145481 -4.78095787 0 0 0 Z " fill="#948AA7" transform="translate(266,192)"/>
<path d="M0 0 C2.125 0.9375 2.125 0.9375 4 2 C3.34 3.32 2.68 4.64 2 6 C0.68 5.67 -0.64 5.34 -2 5 C-2 3.68 -2 2.36 -2 1 C-1.34 0.67 -0.68 0.34 0 0 Z " fill="#D9D3E2" transform="translate(261,133)"/>
<path d="M0 0 C7.50769231 0.61538462 7.50769231 0.61538462 10 2.5625 C10.33 3.036875 10.66 3.51125 11 4 C3.375 3.125 3.375 3.125 0 2 C0 1.34 0 0.68 0 0 Z " fill="#3C3055" transform="translate(222,210)"/>
<path d="M0 0 C-0.33 0.66 -0.66 1.32 -1 2 C-3.5625 2.625 -3.5625 2.625 -6 3 C-5.67 4.65 -5.34 6.3 -5 8 C-5.99 7.67 -6.98 7.34 -8 7 C-8 5.02 -8 3.04 -8 1 C-5.07175348 0.02391783 -3.04386724 -0.08226668 0 0 Z " fill="#392C54" transform="translate(262,195)"/>
<path d="M0 0 C1.98 0.495 1.98 0.495 4 1 C3.67 2.65 3.34 4.3 3 6 C1.68 5.67 0.36 5.34 -1 5 C-0.67 3.35 -0.34 1.7 0 0 Z " fill="#D5CCDD" transform="translate(295,145)"/>
<path d="M0 0 C0.33 0 0.66 0 1 0 C1 2.31 1 4.62 1 7 C-1.31 7.33 -3.62 7.66 -6 8 C-5.67 8.66 -5.34 9.32 -5 10 C-5.99 10 -6.98 10 -8 10 C-7.67 8.68 -7.34 7.36 -7 6 C-4.69 5.34 -2.38 4.68 0 4 C0 2.68 0 1.36 0 0 Z " fill="#DFC5EC" transform="translate(246,141)"/>
<path d="M0 0 C1.9375 0.3125 1.9375 0.3125 4 1 C4.33 1.99 4.66 2.98 5 4 C4.67 4.66 4.34 5.32 4 6 C2.68 6 1.36 6 0 6 C-1 3 -1 3 0 0 Z " fill="#DACAE1" transform="translate(287,127)"/>
<path d="M0 0 C-0.66 0 -1.32 0 -2 0 C-2 0.66 -2 1.32 -2 2 C-3.98 2.33 -5.96 2.66 -8 3 C-7.01 2.34 -6.02 1.68 -5 1 C-7.31 1 -9.62 1 -12 1 C-8.40043879 -2.59956121 -4.19844797 -2.74513906 0 0 Z " fill="#9B93AA" transform="translate(293,238)"/>
<path d="M0 0 C2.0625 0.4375 2.0625 0.4375 4 1 C3.67 2.65 3.34 4.3 3 6 C2.01 6 1.02 6 0 6 C-0.38218767 4.34385343 -0.71395102 2.67542976 -1 1 C-0.67 0.67 -0.34 0.34 0 0 Z " fill="#D2C4DE" transform="translate(204,175)"/>
<path d="M0 0 C0 0.66 0 1.32 0 2 C0.66 2.33 1.32 2.66 2 3 C-1.63 3.33 -5.26 3.66 -9 4 C-8 2 -8 2 -5.0625 0.875 C-2 0 -2 0 0 0 Z " fill="#4A3D66" transform="translate(241,176)"/>
<path d="M0 0 C4.05606165 0.46800711 7.46588679 0.87953208 11 3 C6.99799622 4.60080151 3.95443764 3.29279692 0 2 C0 1.34 0 0.68 0 0 Z " fill="#322851" transform="translate(224,242)"/>
<path d="M0 0 C2.97 0.99 5.94 1.98 9 3 C9 3.66 9 4.32 9 5 C4.545 4.01 4.545 4.01 0 3 C0 2.01 0 1.02 0 0 Z " fill="#362A4E" transform="translate(211,205)"/>
<path d="M0 0 C0 0.66 0 1.32 0 2 C-0.66 2 -1.32 2 -2 2 C-2.33 3.32 -2.66 4.64 -3 6 C-3.33 5.01 -3.66 4.02 -4 3 C-4.66 3 -5.32 3 -6 3 C-6 2.01 -6 1.02 -6 0 C-3.50907189 -1.24546405 -2.58919267 -0.7767578 0 0 Z " fill="#74AFB6" transform="translate(286,165)"/>
<path d="M0 0 C2.22189824 2.22189824 2.92598892 4.08482708 4 7 C2.35 7.33 0.7 7.66 -1 8 C-1.04241723 5.66705225 -1.04092937 3.33297433 -1 1 C-0.67 0.67 -0.34 0.34 0 0 Z " fill="#9560B6" transform="translate(248,140)"/>
<path d="M0 0 C2.97 0 5.94 0 9 0 C9 0.66 9 1.32 9 2 C6.69 2.33 4.38 2.66 2 3 C1.34 2.01 0.68 1.02 0 0 Z " fill="#332552" transform="translate(247,250)"/>
<path d="M0 0 C1.32 0.66 2.64 1.32 4 2 C3.34 2 2.68 2 2 2 C2 2.66 2 3.32 2 4 C2.99 4.33 3.98 4.66 5 5 C1.1936543 4.32829194 -2.35206816 3.27253436 -6 2 C-2.25 0.875 -2.25 0.875 0 2 C0 1.34 0 0.68 0 0 Z " fill="#A59BB6" transform="translate(220,208)"/>
<path d="M0 0 C3.73487777 0.4979837 5.81237635 0.87491756 9 3 C8.34 3.66 7.68 4.32 7 5 C1.125 2.25 1.125 2.25 0 0 Z " fill="#3D3257" transform="translate(201,202)"/>
<path d="M0 0 C-0.99 1.485 -0.99 1.485 -2 3 C-4.1640625 3.29296875 -4.1640625 3.29296875 -6.625 3.1875 C-7.44226563 3.16042969 -8.25953125 3.13335937 -9.1015625 3.10546875 C-10.04128906 3.05326172 -10.04128906 3.05326172 -11 3 C-7.68381684 -0.31618316 -4.50821267 -1.6697084 0 0 Z " fill="#A29AB2" transform="translate(290,206)"/>
<path d="M0 0 C1 3 1 3 0.0625 5.1875 C-0.4634375 6.0846875 -0.4634375 6.0846875 -1 7 C-2.32 7 -3.64 7 -5 7 C-3.70700306 4.11562221 -2.34058637 2.12780579 0 0 Z " fill="#34254D" transform="translate(201,195)"/>
<path d="M0 0 C0.66 0 1.32 0 2 0 C2 0.66 2 1.32 2 2 C1.34 2 0.68 2 0 2 C0 2.99 0 3.98 0 5 C0.66 5.33 1.32 5.66 2 6 C0.02 6.33 -1.96 6.66 -4 7 C-4 6.01 -4 5.02 -4 4 C-3.01 4 -2.02 4 -1 4 C-0.67 2.68 -0.34 1.36 0 0 Z " fill="#DECAE8" transform="translate(211,156)"/>
<path d="M0 0 C1.32 0.66 2.64 1.32 4 2 C4 2.66 4 3.32 4 4 C3.34 4 2.68 4 2 4 C2 4.99 2 5.98 2 7 C1.34 7 0.68 7 0 7 C0 6.01 0 5.02 0 4 C-0.66 3.67 -1.32 3.34 -2 3 C-1.34 2.01 -0.68 1.02 0 0 Z " fill="#A384BB" transform="translate(267,124)"/>
<path d="M0 0 C0.66 0.33 1.32 0.66 2 1 C2.33 1.99 2.66 2.98 3 4 C3.99 4.33 4.98 4.66 6 5 C5.67 5.99 5.34 6.98 5 8 C5 7.34 5 6.68 5 6 C2.50935112 5.31292445 0.62113708 5 -2 5 C-1.125 1.125 -1.125 1.125 0 0 Z " fill="#D6EBEB" transform="translate(233,125)"/>
<path d="M0 0 C0 0.66 0 1.32 0 2 C-2.91482778 2.80967438 -4.46113217 3.21845993 -7.3125 2.0625 C-7.869375 1.711875 -8.42625 1.36125 -9 1 C-6.04335481 -0.4783226 -3.25770263 -0.06032783 0 0 Z " fill="#706488" transform="translate(299,203)"/>
<path d="M0 0 C1.65 0 3.3 0 5 0 C5 0.99 5 1.98 5 3 C6.32 3.33 7.64 3.66 9 4 C6 5 6 5 2.8125 3.5625 C1.884375 3.046875 0.95625 2.53125 0 2 C0 1.34 0 0.68 0 0 Z " fill="#756B89" transform="translate(234,193)"/>
<path d="M0 0 C0.66 0 1.32 0 2 0 C1.37240135 2.92879371 0.41377341 5.36095629 -1 8 C-2.32 7.01 -3.64 6.02 -5 5 C-4.360625 4.731875 -3.72125 4.46375 -3.0625 4.1875 C-0.66868314 3.11332248 -0.66868314 3.11332248 0 0 Z " fill="#926BB0" transform="translate(210,138)"/>
<path d="M0 0 C1.98 0 3.96 0 6 0 C5.34 1.65 4.68 3.3 4 5 C3.01 4.67 2.02 4.34 1 4 C0.3125 1.9375 0.3125 1.9375 0 0 Z " fill="#C2AACD" transform="translate(221,172)"/>
<path d="M0 0 C0 0.66 0 1.32 0 2 C-2.64 2.33 -5.28 2.66 -8 3 C-5.53387212 -0.1151089 -3.89156016 -0.31553191 0 0 Z " fill="#3B2C54" transform="translate(231,180)"/>
<path d="M0 0 C0.99 0 1.98 0 3 0 C3.33 1.32 3.66 2.64 4 4 C2.68 4 1.36 4 0 4 C-0.33 3.01 -0.66 2.02 -1 1 C-0.67 0.67 -0.34 0.34 0 0 Z " fill="#CBB3D8" transform="translate(210,162)"/>
</svg>
